<svg width="32" height="32" fill="none" xmlns="http://www.w3.org/2000/svg"><path fill-rule="evenodd" clip-rule="evenodd" d="M16 32c8.837 0 16-7.163 16-16S24.837 0 16 0 0 7.163 0 16s7.163 16 16 16zM8.143 10.654v12.68h3.399v-12.68H8.143zm.305-4.536c-.336.329-.504.747-.504 1.254 0 .516.172.938.516 1.266.351.328.812.492 1.382.492.57 0 1.028-.164 1.371-.492.352-.328.528-.75.528-1.266 0-.507-.172-.925-.516-1.254-.343-.328-.804-.492-1.383-.492-.585 0-1.05.164-1.394.492zm9.117 6l-.105-1.464h-3.188v12.68h3.387v-8.942c.476-.813 1.191-1.219 2.144-1.219.727 0 1.246.164 1.559.492.313.32.469.84.469 1.559v8.11h3.386v-8.192c-.015-1.57-.351-2.75-1.007-3.54-.657-.788-1.657-1.183-3-1.183-1.524 0-2.739.567-3.645 1.7z" fill="#0CBBF2"/></svg>