<svg width="20" height="19" fill="none" xmlns="http://www.w3.org/2000/svg"><path d="M10.386 2.666h0l.005-.005.027-.024a7.455 7.455 0 01.545-.432 8.02 8.02 0 011.555-.88c1.28-.539 2.921-.784 4.56.25 2.616 1.65 2.888 4.696 1.884 7.467-.177.488-.644 1.186-1.343 2.028-.687.828-1.561 1.75-2.503 2.68a89.361 89.361 0 01-5.067 4.593 159.547 159.547 0 01-4.54-4.125c-1.767-1.675-3.332-3.268-3.922-4.135-1.45-2.134-1.45-5.365 0-7.499C2.594 1.103 4.411.5 5.87.5c.342 0 .75.113 1.192.315.437.199.876.469 1.272.746a13.21 13.21 0 011.34 1.081l.018.017.004.004h.001v.001s0 0 0 0h0a.5.5 0 00.69.002h0z" fill="#0CBBF2" stroke="#0CBBF2" stroke-linejoin="round"/></svg>