<svg width="1284" height="282" fill="none" xmlns="http://www.w3.org/2000/svg"><path fill-rule="evenodd" clip-rule="evenodd" d="M926.989 50.29a7.641 7.641 0 017.641-7.642h29.316a7.641 7.641 0 010 15.283h-21.674v75.076a7.642 7.642 0 01-15.283 0V50.289z" fill="#0381A8"/><path fill-rule="evenodd" clip-rule="evenodd" d="M950.928 61.444c-6.97 3.403-8.656 7.458-8.656 8.828v62.633a7.642 7.642 0 01-15.283 0V70.272c0-9.94 8.022-18.064 17.233-22.561 9.748-4.76 22.857-6.708 37.384-3.454a7.642 7.642 0 01-3.34 14.913c-11.362-2.545-20.906-.868-27.338 2.274zM572.539 50.29a7.641 7.641 0 017.642-7.642h29.315a7.641 7.641 0 010 15.283h-21.674v75.076a7.641 7.641 0 01-7.641 7.641 7.641 7.641 0 01-7.642-7.641V50.289z" fill="#0381A8"/><path fill-rule="evenodd" clip-rule="evenodd" d="M596.478 61.444c-6.97 3.403-8.656 7.458-8.656 8.828v62.633a7.641 7.641 0 01-7.641 7.641 7.641 7.641 0 01-7.642-7.641V70.272c0-9.94 8.022-18.064 17.233-22.561 9.748-4.76 22.857-6.708 37.384-3.454a7.642 7.642 0 11-3.34 14.913c-11.362-2.545-20.905-.868-27.338 2.274zm292.847-18.796a7.641 7.641 0 017.641 7.641v82.718a7.641 7.641 0 01-7.641 7.641 7.641 7.641 0 01-7.642-7.641V50.289a7.641 7.641 0 017.642-7.641zm104.29 47.616a7.642 7.642 0 017.645-7.642h82.61a7.64 7.64 0 017.64 7.642 7.64 7.64 0 01-7.64 7.641h-82.61a7.642 7.642 0 01-7.645-7.641z" fill="#0381A8"/><path fill-rule="evenodd" clip-rule="evenodd" d="M1018.74 48.836a48.965 48.965 0 0132.82-5.355 48.965 48.965 0 0128.66 16.844c7.17 8.628 11.29 18.966 11.29 29.981a7.64 7.64 0 11-15.28 0c0-7.056-2.61-14.015-7.77-20.217a33.631 33.631 0 00-19.71-11.585 33.667 33.667 0 00-37.58 20.936 33.696 33.696 0 00-.53 22.862 33.695 33.695 0 0014.21 17.923c6.48 4.012 16.63 5.836 24.65 4.715a33.674 33.674 0 0020.23-10.669 7.636 7.636 0 0110.79-.502c3.12 2.843 3.35 7.676.51 10.795a48.978 48.978 0 01-29.41 15.512c-11.07 1.546-24.91-.722-34.82-6.856a48.953 48.953 0 011.94-84.384zm114.6 0a48.936 48.936 0 0132.81-5.355 48.96 48.96 0 0128.67 16.844c2.69 3.246 2.25 8.064-1 10.76a7.64 7.64 0 01-10.76-.996 33.656 33.656 0 00-19.72-11.585 33.64 33.64 0 00-22.56 3.683 33.605 33.605 0 00-15.01 17.253 33.637 33.637 0 00-.53 22.862 33.677 33.677 0 0014.2 17.923c6.49 4.012 16.63 5.836 24.66 4.715a33.643 33.643 0 0020.22-10.669c2.85-3.119 7.68-3.344 10.8-.502a7.643 7.643 0 01.5 10.795 48.922 48.922 0 01-29.41 15.512c-11.06 1.546-24.9-.722-34.81-6.856a48.953 48.953 0 01-19.89-59.299 48.979 48.979 0 0121.83-25.085zM750.743 15.643V8h31.042c13.712 0 29.268 2.875 42.236 10.124.204.115.408.23.611.347a64.384 64.384 0 0128.026 32.679 64.622 64.622 0 011.001 43.743 64.41 64.41 0 01-27.097 34.307c-12.842 7.975-31.128 11.345-44.777 11.345h-31.042a7.642 7.642 0 01-7.642-7.642V15.643A7.642 7.642 0 01750.743 8v7.642zm7.641 26.65v63.961c0 6.258 2.053 10.88 5.091 13.918 3.038 3.038 7.659 5.091 13.918 5.091h4.392c11.916 0 27.093-3.07 36.715-9.045a49.143 49.143 0 0021.845-30.288 49.336 49.336 0 00-2.761-31.262 49.144 49.144 0 00-12.974-17.576 48.95 48.95 0 00-8.047-5.627c-10.111-5.652-22.924-8.18-34.778-8.18h-4.395c-6.257 0-10.878 2.053-13.915 5.09-3.038 3.038-5.091 7.66-5.091 13.918zM502.894 57.93c-19.56 0-34.999 15.3-34.999 33.667s15.439 33.667 34.999 33.667c19.56 0 34.999-15.3 34.999-33.667 0-18.366-15.439-33.666-34.999-33.666zm-50.282 33.667c0-27.26 22.743-48.95 50.282-48.95 27.54 0 50.282 21.69 50.282 48.95 0 27.261-22.742 48.95-50.282 48.95-27.539 0-50.282-21.689-50.282-48.95zm756.868-41.309a7.64 7.64 0 017.64-7.641h58.63c4.22 0 7.65 3.42 7.65 7.641 0 4.22-3.43 7.641-7.65 7.641h-58.63a7.64 7.64 0 01-7.64-7.641z" fill="#0381A8"/><path fill-rule="evenodd" clip-rule="evenodd" d="M1257 119.906c-3.77-2.966-5.58-6.799-5.58-10.988V16.975c0-4.22-3.43-7.641-7.65-7.641a7.64 7.64 0 00-7.64 7.641v91.943c0 9.137 4.18 17.297 11.41 22.992 7.13 5.62 16.91 8.635 28.21 8.635 4.22 0 7.65-3.421 7.65-7.641 0-4.221-3.43-7.642-7.65-7.642-8.68 0-14.89-2.314-18.75-5.356z" fill="#0381A8"/><path fill-rule="evenodd" clip-rule="evenodd" d="M1243.77 8.001c4.22 0 7.65 3.421 7.65 7.642 0 12.965-2.87 23.766-9.58 31.373-6.87 7.786-16.59 10.914-27.38 10.914a7.64 7.64 0 01-7.64-7.642 7.64 7.64 0 017.64-7.641c7.87 0 12.8-2.203 15.92-5.743 3.28-3.72 5.75-10.241 5.75-21.261A7.64 7.64 0 011243.77 8zm-586.303 0a7.641 7.641 0 017.641 7.642v117.261a7.642 7.642 0 11-15.283 0V15.643A7.641 7.641 0 01657.467 8z" fill="#0381A8"/><path fill-rule="evenodd" clip-rule="evenodd" d="M714.32 45.847a7.642 7.642 0 01-1.776 10.66l-38.53 27.52 52.266 42.975a7.642 7.642 0 01-9.706 11.805l-59.963-49.303a7.64 7.64 0 01.411-12.12l46.639-33.314a7.64 7.64 0 0110.659 1.777z" fill="#0381A8"/><path fill-rule="evenodd" clip-rule="evenodd" d="M657.467 31.988a7.641 7.641 0 017.641 7.641c0 6.977.267 12.57 1.175 16.702.942 4.28 2.162 5.142 2.496 5.313.418.214 2.616.983 8.865-1.55 6.044-2.45 14.429-7.416 25.902-15.939a7.64 7.64 0 0110.69 1.578 7.64 7.64 0 01-1.577 10.69c-11.847 8.801-21.45 14.662-29.273 17.834-7.617 3.088-15.164 4.273-21.574.99-6.495-3.328-9.19-9.879-10.455-15.633-1.299-5.904-1.532-12.97-1.532-19.985a7.641 7.641 0 017.642-7.641zM333.221 135.713l-15.168-38.056c-.254-.578-.507-1.166-.758-1.763a7.617 7.617 0 01-.344-1.004l-30.456-76.418a7.642 7.642 0 0114.197-5.658l31.453 78.92c2.231 5.028 4.299 8.5 6.09 10.718 2.488 3.081 3.418 1.709 3.418 1.709 1.34-1.413 3.069-4.151 4.905-8.74.129-.323.278-.632.444-.927l18.172-46.944.032-.081a7.613 7.613 0 014.863-4.487 7.605 7.605 0 015.126.232 7.612 7.612 0 014.215 4.255l.031.08 18.172 46.944c.167.295.316.605.445.928 1.835 4.589 3.565 7.327 4.904 8.74 0 0 .941 1.358 3.418-1.709 1.792-2.218 3.859-5.689 6.089-10.715l31.454-78.923a7.642 7.642 0 0114.197 5.659l-30.455 76.415a7.56 7.56 0 01-.344 1.006c-.252.599-.505 1.188-.76 1.767l-15.165 38.05-.055.135a7.606 7.606 0 01-1.675 2.49 7.672 7.672 0 01-5.416 2.212 7.623 7.623 0 01-2.903-.59 7.621 7.621 0 01-4.194-4.318l-24.845-64.183-24.846 64.184-.045.114a7.606 7.606 0 01-4.636 4.387 7.613 7.613 0 01-5.325-.156 7.598 7.598 0 01-2.506-1.65 7.602 7.602 0 01-1.693-2.533l-.036-.09zm7.338-30.666s.03-.02.089-.033a.275.275 0 01-.089.033zm63.498 0s-.031-.02-.089-.033c.06.031.089.033.089.033z" fill="#0381A8"/><path d="M5.964 74.13l114.809-62.623L234.091 72.64l1.491 132.702-114.809 67.096L5.964 208.323V74.131z" fill="#CFCFCF"/><path d="M158.031 257.234l-32.803 18.636c-1.988 1.129-4.455-.306-4.455-2.593v-36.721c0-1.073.576-2.063 1.509-2.593l32.802-18.636c1.988-1.129 4.456.306 4.456 2.593v36.721a2.984 2.984 0 01-1.509 2.593zm.049-45.722l-32.802 19.483c-1.988 1.18-4.505-.252-4.505-2.564v-38.625c0-1.052.554-2.026 1.459-2.564l32.803-19.483c1.988-1.181 4.505.252 4.505 2.564v38.625a2.983 2.983 0 01-1.46 2.564zm-.049-46.722l-32.803 18.636c-1.988 1.13-4.455-.306-4.455-2.592v-36.722c0-1.072.576-2.062 1.509-2.592l32.802-18.637c1.988-1.129 4.456.307 4.456 2.593v36.721a2.984 2.984 0 01-1.509 2.593zm41.667 68.569l-35.785 18.878c-1.986 1.048-4.373-.392-4.373-2.637v-36.838c0-1.106.612-2.121 1.59-2.637l35.785-18.878c1.986-1.048 4.373.392 4.373 2.637v36.837a2.982 2.982 0 01-1.59 2.638z" fill="#FFB258"/><path d="M199.746 187.639l-35.784 19.736c-1.988 1.096-4.422-.342-4.422-2.611v-38.751c0-1.086.59-2.086 1.541-2.611l35.785-19.736c1.987-1.096 4.422.341 4.422 2.611v38.75c0 1.087-.59 2.087-1.542 2.612zm-.048-46.724l-35.785 18.879c-1.986 1.047-4.373-.393-4.373-2.638v-36.837c0-1.106.612-2.122 1.59-2.638l35.785-18.878c1.986-1.048 4.373.392 4.373 2.637v36.838a2.981 2.981 0 01-1.59 2.637zm38.848 68.606l-32.803 18.636c-1.988 1.13-4.455-.306-4.455-2.593v-36.721c0-1.073.577-2.063 1.509-2.593l32.803-18.636c1.988-1.129 4.455.307 4.455 2.593v36.721a2.982 2.982 0 01-1.509 2.593z" fill="#FFB258"/><path d="M238.596 163.799l-32.803 19.483c-1.988 1.181-4.505-.252-4.505-2.564v-38.625a2.98 2.98 0 011.46-2.563l32.802-19.484c1.988-1.18 4.505.252 4.505 2.564v38.625a2.985 2.985 0 01-1.459 2.564zm-.05-46.722l-32.803 18.637c-1.988 1.129-4.455-.307-4.455-2.593V96.4c0-1.073.577-2.063 1.509-2.593L235.6 75.17c1.988-1.13 4.455.306 4.455 2.592v36.722a2.981 2.981 0 01-1.509 2.592z" fill="#FFB258"/><path d="M83.515 257.234l32.803 18.636c1.988 1.129 4.455-.306 4.455-2.593v-36.721a2.982 2.982 0 00-1.509-2.593l-32.803-18.636c-1.988-1.129-4.455.306-4.455 2.593v36.721a2.98 2.98 0 001.51 2.593zm-.049-45.722l32.802 19.483c1.988 1.18 4.505-.252 4.505-2.564v-38.625a2.985 2.985 0 00-1.459-2.564l-32.803-19.483c-1.988-1.181-4.505.252-4.505 2.564v38.625c0 1.052.555 2.026 1.46 2.564zm.049-46.722l32.803 18.636c1.988 1.13 4.455-.306 4.455-2.592v-36.722a2.981 2.981 0 00-1.509-2.592l-32.803-18.637c-1.988-1.129-4.455.307-4.455 2.593v36.721a2.98 2.98 0 001.51 2.593z" fill="#0381A8"/><path d="M41.848 233.359l35.785 18.878c1.986 1.048 4.373-.392 4.373-2.637v-36.838a2.981 2.981 0 00-1.59-2.637L44.63 191.247c-1.986-1.048-4.373.392-4.373 2.637v36.837c0 1.107.612 2.122 1.59 2.638zm-.048-45.72l35.784 19.736c1.988 1.096 4.422-.342 4.422-2.611v-38.751c0-1.086-.59-2.086-1.541-2.611L44.68 143.666c-1.988-1.096-4.422.341-4.422 2.611v38.75c0 1.087.59 2.087 1.541 2.612zm.048-46.724l35.785 18.879c1.986 1.047 4.373-.393 4.373-2.638v-36.837a2.983 2.983 0 00-1.59-2.638L44.63 98.803c-1.986-1.048-4.373.392-4.373 2.637v36.838c0 1.106.612 2.121 1.59 2.637z" fill="#0381A8"/><path d="M3 209.521l32.803 18.636c1.987 1.13 4.455-.306 4.455-2.593v-36.721a2.982 2.982 0 00-1.51-2.593L5.947 167.614c-1.988-1.129-4.455.307-4.455 2.593v36.721c0 1.073.576 2.063 1.509 2.593zm-.05-45.722l32.803 19.483c1.987 1.181 4.505-.252 4.505-2.564v-38.625a2.98 2.98 0 00-1.46-2.563L5.996 120.046c-1.988-1.18-4.505.252-4.505 2.564v38.625c0 1.052.554 2.026 1.46 2.564zM3 117.077l32.803 18.637c1.987 1.129 4.455-.307 4.455-2.593V96.4a2.982 2.982 0 00-1.51-2.593L5.947 75.17c-1.988-1.13-4.455.306-4.455 2.592v36.722c0 1.072.576 2.062 1.509 2.592z" fill="#0381A8"/><path d="M119.313 140.407l-34.117-19.158c-2.04-1.145-2.027-4.087.024-5.214l34.117-18.75a2.98 2.98 0 012.872 0l34.118 18.75c2.05 1.127 2.063 4.069.023 5.214l-34.117 19.158a2.983 2.983 0 01-2.92 0z" fill="#fff"/><path fill-rule="evenodd" clip-rule="evenodd" d="M118.619 95.979a4.474 4.474 0 014.309 0l34.117 18.75c3.075 1.69 3.095 6.102.035 7.82l-34.117 19.158a4.472 4.472 0 01-4.38 0l-34.117-19.158c-3.06-1.718-3.04-6.13.035-7.82l34.118-18.75zm2.872 2.613a1.49 1.49 0 00-1.436 0l-34.117 18.75a1.491 1.491 0 00-.012 2.607l34.117 19.158a1.494 1.494 0 001.46 0l34.117-19.158a1.49 1.49 0 00-.012-2.607l-34.117-18.75z" fill="#CFCFCF"/><path d="M80.546 118.041L46.43 98.884c-2.04-1.146-2.026-4.087.024-5.214L80.57 74.92a2.982 2.982 0 012.873 0l34.117 18.75c2.05 1.127 2.064 4.068.024 5.214L83.466 118.04c-.906.51-2.013.51-2.92 0z" fill="#fff"/><path fill-rule="evenodd" clip-rule="evenodd" d="M79.852 73.613a4.473 4.473 0 014.309 0l34.117 18.75c3.075 1.69 3.095 6.103.036 7.821l-34.118 19.158a4.477 4.477 0 01-4.38 0L45.7 100.184c-3.06-1.718-3.04-6.13.036-7.82l34.117-18.75zm2.872 2.614a1.49 1.49 0 00-1.436 0l-34.117 18.75a1.491 1.491 0 00-.012 2.607l34.117 19.157a1.489 1.489 0 001.46 0l34.118-19.157c1.019-.573 1.013-2.044-.012-2.607l-34.118-18.75z" fill="#CFCFCF"/><path d="M119.313 92.694L85.196 73.536c-2.04-1.145-2.027-4.087.024-5.213l34.117-18.75a2.98 2.98 0 012.872 0l34.118 18.75c2.05 1.127 2.063 4.068.023 5.213l-34.117 19.158c-.907.51-2.013.51-2.92 0z" fill="#fff"/><path fill-rule="evenodd" clip-rule="evenodd" d="M118.619 48.266a4.474 4.474 0 014.309 0l34.117 18.75c3.075 1.69 3.095 6.102.035 7.82l-34.117 19.158a4.473 4.473 0 01-4.38 0L84.466 74.836c-3.06-1.718-3.04-6.13.035-7.82l34.118-18.75zm2.872 2.613a1.49 1.49 0 00-1.436 0L85.938 69.63a1.49 1.49 0 00-.012 2.607l34.117 19.158a1.49 1.49 0 001.46 0l34.117-19.158a1.49 1.49 0 00-.012-2.607l-34.117-18.75z" fill="#CFCFCF"/><path d="M79.055 68.838L44.938 49.68c-2.04-1.146-2.027-4.087.024-5.214l34.117-18.75a2.982 2.982 0 012.873 0l34.117 18.75c2.05 1.127 2.063 4.068.024 5.214L81.975 68.838a2.983 2.983 0 01-2.92 0z" fill="#fff"/><path fill-rule="evenodd" clip-rule="evenodd" d="M78.36 24.41a4.473 4.473 0 014.31 0l34.117 18.75c3.075 1.69 3.096 6.102.036 7.82L82.705 70.138a4.473 4.473 0 01-4.38 0L44.208 50.98c-3.06-1.718-3.04-6.13.036-7.82L78.36 24.41zm2.874 2.613a1.491 1.491 0 00-1.437 0L45.68 45.773a1.49 1.49 0 00-.012 2.607l34.117 19.157a1.491 1.491 0 001.46 0l34.118-19.157a1.491 1.491 0 00-.012-2.607l-34.117-18.75z" fill="#CFCFCF"/><path d="M159.571 68.838L125.453 49.68c-2.04-1.146-2.026-4.087.024-5.214l34.117-18.75a2.983 2.983 0 012.873 0l34.117 18.75c2.05 1.127 2.064 4.068.024 5.214l-34.117 19.158a2.983 2.983 0 01-2.92 0z" fill="#fff"/><path fill-rule="evenodd" clip-rule="evenodd" d="M158.876 24.41a4.474 4.474 0 014.309 0l34.117 18.75c3.076 1.69 3.096 6.102.036 7.82l-34.117 19.158a4.473 4.473 0 01-4.38 0L124.723 50.98c-3.06-1.718-3.039-6.13.036-7.82l34.117-18.75zm2.873 2.613a1.49 1.49 0 00-1.436 0l-34.118 18.75a1.491 1.491 0 00-.012 2.607l34.118 19.157a1.49 1.49 0 001.46 0l34.117-19.157a1.491 1.491 0 00-.012-2.607l-34.117-18.75z" fill="#CFCFCF"/><path d="M119.313 44.981L85.196 25.823c-2.04-1.145-2.027-4.086.024-5.213l34.117-18.75a2.981 2.981 0 012.872 0l34.118 18.75c2.05 1.127 2.063 4.068.023 5.213l-34.117 19.158c-.907.51-2.013.51-2.92 0z" fill="#fff"/><path fill-rule="evenodd" clip-rule="evenodd" d="M118.619.553a4.473 4.473 0 014.309 0l34.117 18.75c3.075 1.69 3.095 6.102.035 7.82l-34.117 19.158a4.473 4.473 0 01-4.38 0L84.466 27.124c-3.06-1.719-3.04-6.13.035-7.82L118.62.552zm2.872 2.613a1.49 1.49 0 00-1.436 0l-34.117 18.75a1.49 1.49 0 00-.012 2.607l34.117 19.158a1.49 1.49 0 001.46 0l34.117-19.158a1.49 1.49 0 00-.012-2.606l-34.117-18.75z" fill="#CFCFCF"/><path d="M40.289 94.185L6.17 75.027c-2.04-1.145-2.026-4.087.024-5.213l34.117-18.75a2.982 2.982 0 012.873 0l34.117 18.75c2.05 1.127 2.064 4.068.024 5.213L43.209 94.185c-.907.51-2.014.51-2.92 0z" fill="#fff"/><path fill-rule="evenodd" clip-rule="evenodd" d="M39.594 49.757a4.473 4.473 0 014.31 0l34.116 18.75c3.076 1.69 3.096 6.102.036 7.82L43.939 95.485a4.473 4.473 0 01-4.38 0L5.44 76.327c-3.06-1.718-3.04-6.13.036-7.82l34.117-18.75zm2.873 2.613a1.491 1.491 0 00-1.436 0L6.913 71.12a1.491 1.491 0 00-.012 2.607L41.02 92.885a1.491 1.491 0 001.46 0l34.117-19.158a1.491 1.491 0 00-.012-2.607L42.467 52.37z" fill="#CFCFCF"/><path d="M159.571 116.55l-34.118-19.157c-2.04-1.146-2.026-4.087.024-5.214l34.117-18.75a2.983 2.983 0 012.873 0l34.117 18.75c2.05 1.127 2.064 4.068.024 5.214l-34.117 19.157c-.907.51-2.014.51-2.92 0z" fill="#fff"/><path fill-rule="evenodd" clip-rule="evenodd" d="M158.876 72.122a4.474 4.474 0 014.309 0l34.117 18.75c3.076 1.69 3.096 6.103.036 7.82l-34.117 19.159a4.477 4.477 0 01-4.38 0l-34.118-19.158c-3.06-1.718-3.039-6.13.036-7.82l34.117-18.75zm2.873 2.614a1.49 1.49 0 00-1.436 0l-34.118 18.75a1.491 1.491 0 00-.012 2.607l34.118 19.157a1.489 1.489 0 001.46 0l34.117-19.157a1.491 1.491 0 00-.012-2.607l-34.117-18.75z" fill="#CFCFCF"/><path d="M198.337 92.694L164.22 73.536c-2.04-1.145-2.026-4.087.024-5.213l34.117-18.75a2.983 2.983 0 012.873 0l34.117 18.75c2.05 1.127 2.064 4.068.024 5.213l-34.117 19.158a2.98 2.98 0 01-2.921 0z" fill="#fff"/><path fill-rule="evenodd" clip-rule="evenodd" d="M197.643 48.266a4.474 4.474 0 014.309 0l34.117 18.75c3.075 1.69 3.096 6.102.036 7.82l-34.118 19.158a4.473 4.473 0 01-4.38 0L163.49 74.836c-3.06-1.718-3.04-6.13.036-7.82l34.117-18.75zm2.872 2.613a1.49 1.49 0 00-1.436 0l-34.117 18.75a1.491 1.491 0 00-.012 2.607l34.117 19.158a1.49 1.49 0 001.46 0l34.118-19.158a1.491 1.491 0 00-.012-2.607l-34.118-18.75z" fill="#CFCFCF"/><path fill-rule="evenodd" clip-rule="evenodd" d="M17.299 100.999a5.964 5.964 0 016.528 5.341l8.241 82.414 18.924-41.451c3.403-7.455 14.207-6.79 16.67 1.027l23.745 75.365 8.538-68.297a5.965 5.965 0 0111.836 1.479l-10.233 81.862c-1.191 9.532-14.523 10.741-17.41 1.578l-25.52-80.998-20.281 44.426c-3.793 8.308-16.131 6.262-17.04-2.825l-9.34-93.393a5.964 5.964 0 015.342-6.528zm193.47 28.89c5.909 6.626 9.316 17.089 9.897 30.462.771 17.738-1.51 30.555-5.733 39.994-4.282 9.573-10.39 15.287-16.492 19.027-.058.036-.117.07-.176.104l-44.731 25.348a5.966 5.966 0 01-8.905-5.189v-90.414a5.966 5.966 0 013.238-5.305l38.767-19.922c.259-.133.528-.247.804-.341 8.532-2.905 17.103-.747 23.331 6.236zm-19.108 4.933c3.839-1.181 7.262-.294 10.206 3.007 3.358 3.765 6.363 11.091 6.882 23.041.72 16.555-1.472 27.378-4.704 34.604-3.153 7.048-7.447 11.02-11.754 13.677L156.558 229.4v-76.539l35.103-18.039z" fill="#fff"/><path fill-rule="evenodd" clip-rule="evenodd" d="M154.348 214.031c2.982-1.695 6.683.459 6.683 3.889v36.721a4.474 4.474 0 01-2.264 3.889l-32.802 18.636c-2.982 1.694-6.683-.459-6.683-3.889v-36.721c0-1.609.864-3.094 2.263-3.889l32.803-18.636zm3.701 3.889a1.492 1.492 0 00-2.228-1.297l-32.802 18.637a1.49 1.49 0 00-.755 1.296v36.721a1.491 1.491 0 002.228 1.296l32.802-18.636a1.49 1.49 0 00.755-1.296V217.92z" fill="#CFCFCF"/><path fill-rule="evenodd" clip-rule="evenodd" d="M154.273 166.477c2.982-1.771 6.758.378 6.758 3.846v38.625c0 1.578-.832 3.04-2.189 3.846l-32.803 19.483c-2.981 1.771-6.757-.378-6.757-3.846v-38.625c0-1.578.832-3.04 2.189-3.846l32.802-19.483zm3.776 3.846a1.492 1.492 0 00-2.253-1.282l-32.802 19.483a1.49 1.49 0 00-.73 1.282v38.625a1.491 1.491 0 002.252 1.282l32.803-19.483c.452-.269.73-.756.73-1.282v-38.625z" fill="#CFCFCF"/><path fill-rule="evenodd" clip-rule="evenodd" d="M154.348 121.587c2.982-1.694 6.683.46 6.683 3.889v36.721c0 1.61-.865 3.095-2.264 3.89l-32.802 18.636c-2.982 1.694-6.683-.46-6.683-3.889v-36.722c0-1.609.864-3.094 2.263-3.889l32.803-18.636zm3.701 3.889a1.491 1.491 0 00-2.228-1.296l-32.802 18.636a1.49 1.49 0 00-.755 1.296v36.722a1.491 1.491 0 002.228 1.296l32.802-18.636a1.49 1.49 0 00.755-1.297v-36.721zm38.17 64.452c2.979-1.571 6.56.589 6.56 3.957v36.837a4.472 4.472 0 01-2.386 3.956l-35.784 18.878c-2.979 1.572-6.56-.588-6.56-3.956v-36.837c0-1.659.918-3.182 2.386-3.957l35.784-18.878zm3.578 3.957a1.49 1.49 0 00-2.186-1.319l-35.785 18.878a1.491 1.491 0 00-.795 1.319V249.6a1.49 1.49 0 002.186 1.319l35.785-18.878c.489-.258.795-.766.795-1.319v-36.837z" fill="#CFCFCF"/><path fill-rule="evenodd" clip-rule="evenodd" d="M196.146 142.36c2.981-1.644 6.633.512 6.633 3.917v38.75c0 1.63-.886 3.13-2.312 3.917l-35.785 19.736c-2.981 1.645-6.633-.512-6.633-3.916v-38.751c0-1.629.886-3.13 2.312-3.917l35.785-19.736zm3.651 3.917a1.491 1.491 0 00-2.211-1.306l-35.784 19.737a1.49 1.49 0 00-.771 1.305v38.751a1.49 1.49 0 002.211 1.305l35.784-19.736a1.49 1.49 0 00.771-1.306v-38.75z" fill="#CFCFCF"/><path fill-rule="evenodd" clip-rule="evenodd" d="M196.219 97.485c2.979-1.572 6.56.588 6.56 3.956v36.837c0 1.66-.918 3.182-2.386 3.957l-35.784 18.878c-2.979 1.571-6.56-.588-6.56-3.956v-36.838c0-1.659.918-3.182 2.386-3.956l35.784-18.878zm3.578 3.956a1.49 1.49 0 00-2.186-1.319L161.826 119a1.493 1.493 0 00-.795 1.319v36.838a1.49 1.49 0 002.186 1.318l35.785-18.878c.489-.258.795-.766.795-1.319v-36.837zm35.066 64.877c2.982-1.694 6.683.459 6.683 3.889v36.721a4.473 4.473 0 01-2.263 3.889l-32.803 18.636c-2.982 1.695-6.683-.459-6.683-3.889v-36.721c0-1.609.865-3.094 2.264-3.889l32.802-18.636zm3.701 3.889a1.491 1.491 0 00-2.228-1.296l-32.802 18.636c-.466.265-.755.76-.755 1.296v36.721a1.492 1.492 0 002.228 1.297l32.803-18.636c.466-.265.754-.761.754-1.297v-36.721z" fill="#CFCFCF"/><path fill-rule="evenodd" clip-rule="evenodd" d="M234.789 118.764c2.981-1.771 6.757.378 6.757 3.846v38.625c0 1.578-.832 3.04-2.189 3.846l-32.802 19.483c-2.982 1.771-6.758-.378-6.758-3.846v-38.625c0-1.578.832-3.039 2.189-3.845l32.803-19.484zm3.775 3.846a1.491 1.491 0 00-2.252-1.282l-32.803 19.484a1.49 1.49 0 00-.73 1.281v38.625a1.492 1.492 0 002.253 1.282l32.802-19.483a1.49 1.49 0 00.73-1.282V122.61z" fill="#CFCFCF"/><path fill-rule="evenodd" clip-rule="evenodd" d="M234.863 73.874c2.982-1.694 6.683.46 6.683 3.89v36.721a4.473 4.473 0 01-2.263 3.889L206.48 137.01c-2.982 1.694-6.683-.46-6.683-3.889V96.4c0-1.61.865-3.095 2.264-3.89l32.802-18.636zm3.701 3.89a1.491 1.491 0 00-2.228-1.297l-32.802 18.636c-.466.265-.755.76-.755 1.297v36.721a1.491 1.491 0 002.228 1.296l32.803-18.636c.466-.265.754-.76.754-1.296V77.763zM87.198 214.031c-2.982-1.695-6.682.459-6.682 3.889v36.721c0 1.609.864 3.094 2.263 3.889l32.802 18.636c2.982 1.694 6.683-.459 6.683-3.889v-36.721a4.473 4.473 0 00-2.263-3.889l-32.803-18.636zm-3.7 3.889a1.492 1.492 0 012.227-1.297l32.803 18.637c.466.265.754.76.754 1.296v36.721a1.49 1.49 0 01-2.227 1.296l-32.803-18.636a1.49 1.49 0 01-.754-1.296V217.92z" fill="#CFCFCF"/><path fill-rule="evenodd" clip-rule="evenodd" d="M87.273 166.477c-2.982-1.771-6.757.378-6.757 3.846v38.625c0 1.578.831 3.04 2.188 3.846l32.803 19.483c2.982 1.771 6.757-.378 6.757-3.846v-38.625c0-1.578-.832-3.04-2.189-3.846l-32.802-19.483zm-3.775 3.846a1.491 1.491 0 012.252-1.282l32.803 19.483c.452.269.729.756.729 1.282v38.625a1.49 1.49 0 01-2.252 1.282L84.227 210.23a1.492 1.492 0 01-.73-1.282v-38.625z" fill="#CFCFCF"/><path fill-rule="evenodd" clip-rule="evenodd" d="M87.198 121.587c-2.982-1.694-6.682.46-6.682 3.889v36.721c0 1.61.864 3.095 2.263 3.89l32.802 18.636c2.982 1.694 6.683-.46 6.683-3.889v-36.722a4.473 4.473 0 00-2.263-3.889l-32.803-18.636zm-3.7 3.889a1.49 1.49 0 012.227-1.296l32.803 18.636c.466.265.754.76.754 1.296v36.722a1.49 1.49 0 01-2.227 1.296l-32.803-18.636a1.491 1.491 0 01-.754-1.297v-36.721zm-38.171 64.452c-2.98-1.571-6.56.589-6.56 3.957v36.837c0 1.659.918 3.182 2.386 3.956l35.784 18.878c2.979 1.572 6.56-.588 6.56-3.956v-36.837a4.475 4.475 0 00-2.386-3.957l-35.784-18.878zm-3.578 3.957a1.49 1.49 0 012.186-1.319l35.785 18.878c.49.258.795.766.795 1.319V249.6a1.491 1.491 0 01-2.186 1.319l-35.785-18.878a1.491 1.491 0 01-.795-1.319v-36.837z" fill="#CFCFCF"/><path fill-rule="evenodd" clip-rule="evenodd" d="M45.4 142.36c-2.981-1.644-6.633.512-6.633 3.917v38.75c0 1.63.886 3.13 2.312 3.917l35.785 19.736c2.981 1.645 6.633-.512 6.633-3.916v-38.751c0-1.629-.886-3.13-2.313-3.917L45.4 142.36zm-3.651 3.917a1.491 1.491 0 012.21-1.306l35.785 19.737c.476.262.771.762.771 1.305v38.751a1.491 1.491 0 01-2.21 1.305L42.52 186.333a1.491 1.491 0 01-.771-1.306v-38.75z" fill="#CFCFCF"/><path fill-rule="evenodd" clip-rule="evenodd" d="M45.327 97.485c-2.98-1.572-6.56.588-6.56 3.956v36.837c0 1.66.918 3.182 2.386 3.957l35.784 18.878c2.979 1.571 6.56-.588 6.56-3.956v-36.838a4.473 4.473 0 00-2.386-3.956L45.327 97.485zm-3.578 3.956a1.491 1.491 0 012.186-1.319L79.72 119c.49.259.795.766.795 1.319v36.838a1.49 1.49 0 01-2.186 1.318l-35.785-18.878a1.491 1.491 0 01-.795-1.319v-36.837zM6.683 166.318C3.7 164.624 0 166.777 0 170.207v36.721c0 1.609.864 3.094 2.264 3.889l32.802 18.636c2.982 1.695 6.683-.459 6.683-3.889v-36.721a4.473 4.473 0 00-2.264-3.889L6.683 166.318zm-3.7 3.889a1.49 1.49 0 012.227-1.296l32.802 18.636c.467.265.755.76.755 1.296v36.721a1.492 1.492 0 01-2.228 1.297L3.737 208.225a1.492 1.492 0 01-.755-1.297v-36.721z" fill="#CFCFCF"/><path fill-rule="evenodd" clip-rule="evenodd" d="M6.757 118.764C3.776 116.993 0 119.142 0 122.61v38.625c0 1.578.832 3.04 2.189 3.846l32.802 19.483c2.982 1.771 6.758-.378 6.758-3.846v-38.625a4.472 4.472 0 00-2.189-3.845L6.757 118.764zm-3.775 3.846a1.491 1.491 0 012.253-1.282l32.802 19.484c.453.268.73.755.73 1.281v38.625A1.491 1.491 0 0136.514 182L3.712 162.517a1.492 1.492 0 01-.73-1.282V122.61z" fill="#CFCFCF"/><path fill-rule="evenodd" clip-rule="evenodd" d="M6.683 73.874C3.7 72.18 0 74.334 0 77.764v36.721c0 1.609.864 3.094 2.264 3.889l32.802 18.636c2.982 1.694 6.683-.46 6.683-3.889V96.4c0-1.61-.865-3.095-2.264-3.89L6.683 73.874zm-3.7 3.89a1.491 1.491 0 012.227-1.297l32.802 18.636c.467.265.755.76.755 1.297v36.721a1.49 1.49 0 01-2.228 1.296L3.737 115.781a1.49 1.49 0 01-.755-1.296V77.763z" fill="#CFCFCF"/><path d="M331.008 240.156H307.18L301.828 255h-7.734l21.718-56.875h6.563L344.133 255h-7.695l-5.43-14.844zm-21.563-6.172h19.336l-9.687-26.601-9.649 26.601zm68.516-15.273h-19.492V255h-7.266v-42.266h26.758v5.977zm41.992 15.625c0 6.432-1.471 11.615-4.414 15.547-2.943 3.932-6.927 5.898-11.953 5.898-5.13 0-9.167-1.627-12.109-4.883v20.352h-7.227v-58.516h6.602l.351 4.688c2.943-3.646 7.031-5.469 12.266-5.469 5.078 0 9.088 1.914 12.031 5.742 2.969 3.828 4.453 9.154 4.453 15.977v.664zm-7.226-.82c0-4.766-1.016-8.529-3.047-11.289-2.032-2.761-4.818-4.141-8.36-4.141-4.375 0-7.656 1.94-9.843 5.82v20.196c2.161 3.854 5.468 5.781 9.921 5.781 3.464 0 6.211-1.367 8.243-4.102 2.057-2.76 3.086-6.849 3.086-12.265zm33.984 22.265c-5.729 0-10.391-1.875-13.984-5.625-3.594-3.776-5.391-8.815-5.391-15.117v-1.328c0-4.193.794-7.93 2.383-11.211 1.614-3.307 3.854-5.885 6.719-7.734 2.89-1.875 6.015-2.813 9.374-2.813 5.495 0 9.766 1.81 12.813 5.43 3.047 3.62 4.57 8.802 4.57 15.547v3.008h-28.633c.105 4.166 1.316 7.539 3.633 10.117 2.344 2.552 5.313 3.828 8.907 3.828 2.552 0 4.713-.521 6.484-1.563 1.771-1.041 3.32-2.422 4.648-4.14l4.414 3.437c-3.541 5.443-8.854 8.164-15.937 8.164zm-.899-37.89c-2.916 0-5.364 1.067-7.343 3.203-1.979 2.109-3.203 5.078-3.672 8.906h21.172v-.547c-.209-3.672-1.198-6.51-2.969-8.515-1.771-2.032-4.167-3.047-7.188-3.047zm53.086.82h-19.492V255h-7.265v-42.266h26.757v5.977zM531.281 255c-.416-.833-.755-2.318-1.015-4.453-3.36 3.489-7.37 5.234-12.032 5.234-4.166 0-7.591-1.172-10.273-3.515-2.656-2.37-3.984-5.365-3.984-8.985 0-4.401 1.666-7.812 5-10.234 3.359-2.448 8.072-3.672 14.14-3.672h7.031v-3.32c0-2.526-.755-4.532-2.265-6.016-1.511-1.51-3.737-2.266-6.68-2.266-2.578 0-4.739.651-6.484 1.954-1.745 1.302-2.617 2.877-2.617 4.726h-7.266c0-2.109.742-4.141 2.226-6.094 1.511-1.979 3.542-3.541 6.094-4.687 2.578-1.146 5.404-1.719 8.477-1.719 4.87 0 8.685 1.224 11.445 3.672 2.761 2.422 4.193 5.768 4.297 10.039v19.453c0 3.88.495 6.966 1.484 9.258V255h-7.578zm-11.992-5.508c2.266 0 4.414-.586 6.445-1.758 2.032-1.172 3.503-2.695 4.414-4.57v-8.672h-5.664c-8.854 0-13.281 2.591-13.281 7.774 0 2.265.755 4.036 2.266 5.312 1.51 1.276 3.45 1.914 5.82 1.914zm60.195-30.898h-14.179V255h-7.227v-36.406h-13.906v-5.86h35.312v5.86zm3.477 14.883c0-4.141.807-7.865 2.422-11.172 1.64-3.308 3.906-5.86 6.797-7.657 2.916-1.796 6.237-2.695 9.961-2.695 5.755 0 10.403 1.992 13.945 5.977 3.568 3.984 5.352 9.284 5.352 15.898v.508c0 4.115-.795 7.812-2.383 11.094-1.563 3.255-3.815 5.794-6.758 7.617-2.917 1.823-6.276 2.734-10.078 2.734-5.729 0-10.378-1.992-13.946-5.976-3.541-3.985-5.312-9.258-5.312-15.821v-.507zm7.266.859c0 4.687 1.08 8.45 3.242 11.289 2.187 2.839 5.104 4.258 8.75 4.258 3.672 0 6.588-1.432 8.75-4.297 2.161-2.891 3.242-6.927 3.242-12.109 0-4.636-1.107-8.386-3.32-11.25-2.188-2.891-5.105-4.336-8.75-4.336-3.568 0-6.446 1.419-8.633 4.257-2.188 2.839-3.281 6.901-3.281 12.188zm75.976 0c0 6.432-1.471 11.615-4.414 15.547-2.943 3.932-6.927 5.898-11.953 5.898-5.13 0-9.167-1.627-12.109-4.883v20.352H630.5v-58.516h6.602l.351 4.688c2.943-3.646 7.031-5.469 12.266-5.469 5.078 0 9.088 1.914 12.031 5.742 2.969 3.828 4.453 9.154 4.453 15.977v.664zm-7.226-.82c0-4.766-1.016-8.529-3.047-11.289-2.032-2.761-4.818-4.141-8.36-4.141-4.375 0-7.656 1.94-9.843 5.82v20.196c2.161 3.854 5.468 5.781 9.921 5.781 3.464 0 6.211-1.367 8.243-4.102 2.057-2.76 3.086-6.849 3.086-12.265zm54.843-18.36c5.313 0 9.558 1.784 12.735 5.352 3.203 3.541 4.804 8.216 4.804 14.023v.664c0 3.985-.768 7.552-2.304 10.703-1.537 3.125-3.75 5.56-6.641 7.305-2.865 1.719-6.172 2.578-9.922 2.578-5.677 0-10.247-1.888-13.711-5.664-3.463-3.802-5.195-8.893-5.195-15.273v-3.516c0-8.88 1.641-15.937 4.922-21.172 3.307-5.234 8.177-8.424 14.609-9.57 3.646-.651 6.107-1.445 7.383-2.383 1.276-.937 1.914-2.226 1.914-3.867h5.938c0 3.255-.743 5.794-2.227 7.617-1.458 1.823-3.802 3.112-7.031 3.867l-5.391 1.211c-4.297 1.016-7.526 2.735-9.687 5.157-2.136 2.395-3.529 5.598-4.18 9.609 3.828-4.427 8.49-6.641 13.984-6.641zm-1.406 5.938c-3.542 0-6.354 1.198-8.437 3.594-2.084 2.369-3.125 5.664-3.125 9.882v.625c0 4.532 1.041 8.125 3.125 10.782 2.109 2.63 4.947 3.945 8.515 3.945 3.594 0 6.432-1.328 8.516-3.984 2.083-2.657 3.125-6.537 3.125-11.641 0-3.985-1.055-7.175-3.164-9.57-2.084-2.422-4.935-3.633-8.555-3.633zm53.711-8.36h7.227V255h-7.227v-30.82L746.633 255h-7.227v-42.266h7.227v30.86l19.492-30.86zm54.531 21.602c0 6.432-1.471 11.615-4.414 15.547-2.943 3.932-6.927 5.898-11.953 5.898-5.13 0-9.167-1.627-12.109-4.883v20.352h-7.227v-58.516h6.602l.351 4.688c2.943-3.646 7.032-5.469 12.266-5.469 5.078 0 9.088 1.914 12.031 5.742 2.969 3.828 4.453 9.154 4.453 15.977v.664zm-7.226-.82c0-4.766-1.016-8.529-3.047-11.289-2.031-2.761-4.818-4.141-8.36-4.141-4.375 0-7.656 1.94-9.843 5.82v20.196c2.161 3.854 5.468 5.781 9.922 5.781 3.463 0 6.21-1.367 8.242-4.102 2.057-2.76 3.086-6.849 3.086-12.265zm49.531 3.125h-5.078V255h-7.227v-18.359h-5.078L833.742 255h-9.14l15.117-21.875-13.672-20.391h8.75l10.898 17.5h4.961v-17.5h7.227v17.5h4.922l10.976-17.5h8.75l-13.711 20.43L883.938 255h-9.141l-11.836-18.359zm45.82-1.993c0-7.057 1.367-12.604 4.102-16.64 2.734-4.037 6.484-6.055 11.25-6.055 2.213 0 4.153.378 5.82 1.133V195h7.227v18.32c1.823-.911 3.958-1.367 6.406-1.367 4.792 0 8.555 2.018 11.289 6.055 2.734 4.036 4.102 9.857 4.102 17.461 0 6.224-1.368 11.172-4.102 14.843-2.708 3.672-6.445 5.508-11.211 5.508-2.526 0-4.687-.416-6.484-1.25v16.68h-7.227v-16.562c-1.719.755-3.685 1.132-5.898 1.132-4.74 0-8.477-1.836-11.211-5.508-2.709-3.671-4.063-8.697-4.063-15.078v-.586zm42.969 0c0-5.312-.911-9.427-2.734-12.343-1.823-2.943-4.336-4.414-7.539-4.414-1.641 0-3.073.26-4.297.781v30.586c1.172.443 2.63.664 4.375.664 3.229 0 5.729-1.25 7.5-3.75 1.797-2.5 2.695-6.341 2.695-11.524zm-35.742.821c0 4.739.846 8.333 2.539 10.781 1.693 2.448 4.127 3.672 7.305 3.672 1.51 0 2.877-.234 4.101-.703v-30.664c-1.094-.443-2.435-.664-4.023-.664-3.177 0-5.625 1.419-7.344 4.257-1.719 2.839-2.578 7.279-2.578 13.321zm88.082-1.133c0 6.432-1.47 11.615-4.41 15.547-2.943 3.932-6.927 5.898-11.953 5.898-5.131 0-9.167-1.627-12.11-4.883v20.352h-7.226v-58.516h6.601l.352 4.688c2.942-3.646 7.031-5.469 12.265-5.469 5.079 0 9.089 1.914 12.032 5.742 2.969 3.828 4.449 9.154 4.449 15.977v.664zm-7.223-.82c0-4.766-1.015-8.529-3.047-11.289-2.031-2.761-4.817-4.141-8.359-4.141-4.375 0-7.656 1.94-9.844 5.82v20.196c2.162 3.854 5.469 5.781 9.922 5.781 3.464 0 6.211-1.367 8.242-4.102 2.058-2.76 3.086-6.849 3.086-12.265zm43.793-20.782h7.22V255h-7.22v-30.82l-19.5 30.82h-7.22v-42.266h7.22v30.86l19.5-30.86zm53.47 0V255h-7.26v-36.289h-14.38l-.86 15.82c-.47 7.266-1.69 12.461-3.67 15.586-1.95 3.125-5.06 4.753-9.34 4.883h-2.89v-6.367l2.07-.156c2.35-.261 4.03-1.615 5.04-4.063 1.02-2.448 1.67-6.979 1.96-13.594l.78-18.086h28.55zm37.7 42.266c-.42-.833-.76-2.318-1.02-4.453-3.36 3.489-7.37 5.234-12.03 5.234-4.17 0-7.59-1.172-10.27-3.515-2.66-2.37-3.99-5.365-3.99-8.985 0-4.401 1.67-7.812 5-10.234 3.36-2.448 8.08-3.672 14.14-3.672h7.04v-3.32c0-2.526-.76-4.532-2.27-6.016-1.51-1.51-3.74-2.266-6.68-2.266-2.58 0-4.74.651-6.48 1.954-1.75 1.302-2.62 2.877-2.62 4.726h-7.27c0-2.109.74-4.141 2.23-6.094 1.51-1.979 3.54-3.541 6.09-4.687 2.58-1.146 5.41-1.719 8.48-1.719 4.87 0 8.68 1.224 11.44 3.672 2.77 2.422 4.2 5.768 4.3 10.039v19.453c0 3.88.5 6.966 1.49 9.258V255h-7.58zm-11.99-5.508c2.26 0 4.41-.586 6.44-1.758 2.03-1.172 3.5-2.695 4.42-4.57v-8.672h-5.67c-8.85 0-13.28 2.591-13.28 7.774 0 2.265.76 4.036 2.27 5.312 1.51 1.276 3.45 1.914 5.82 1.914zm63.94 5.508h-7.23v-18.047h-19.41V255h-7.26v-42.266h7.26v18.321h19.41v-18.321h7.23V255zm28.6-5.117c2.57 0 4.83-.781 6.75-2.344 1.93-1.562 3-3.516 3.21-5.859h6.83c-.13 2.422-.96 4.726-2.5 6.914-1.53 2.187-3.59 3.932-6.17 5.234a17.622 17.622 0 01-8.12 1.953c-5.76 0-10.34-1.914-13.76-5.742-3.38-3.854-5.07-9.115-5.07-15.781v-1.211c0-4.115.75-7.774 2.26-10.977 1.51-3.203 3.67-5.69 6.49-7.461 2.84-1.77 6.18-2.656 10.04-2.656 4.74 0 8.67 1.419 11.79 4.258 3.15 2.838 4.83 6.523 5.04 11.055h-6.83c-.21-2.735-1.25-4.974-3.13-6.719-1.85-1.771-4.14-2.656-6.87-2.656-3.68 0-6.53 1.328-8.56 3.984-2 2.63-3.01 6.445-3.01 11.445v1.368c0 4.869 1.01 8.619 3.01 11.25 2.01 2.63 4.87 3.945 8.6 3.945zm51.01 5.117c-.42-.833-.75-2.318-1.01-4.453-3.36 3.489-7.37 5.234-12.04 5.234-4.16 0-7.59-1.172-10.27-3.515-2.66-2.37-3.98-5.365-3.98-8.985 0-4.401 1.66-7.812 5-10.234 3.36-2.448 8.07-3.672 14.14-3.672h7.03v-3.32c0-2.526-.76-4.532-2.27-6.016-1.51-1.51-3.73-2.266-6.68-2.266-2.58 0-4.74.651-6.48 1.954-1.75 1.302-2.62 2.877-2.62 4.726h-7.26c0-2.109.74-4.141 2.22-6.094 1.51-1.979 3.54-3.541 6.1-4.687 2.57-1.146 5.4-1.719 8.47-1.719 4.87 0 8.69 1.224 11.45 3.672 2.76 2.422 4.19 5.768 4.29 10.039v19.453c0 3.88.5 6.966 1.49 9.258V255h-7.58zm-11.99-5.508c2.26 0 4.41-.586 6.44-1.758 2.04-1.172 3.51-2.695 4.42-4.57v-8.672h-5.67c-8.85 0-13.28 2.591-13.28 7.774 0 2.265.76 4.036 2.27 5.312 1.51 1.276 3.45 1.914 5.82 1.914z" fill="#D98E36"/></svg>