<svg viewBox="0 0 501 501" fill="none" xmlns="http://www.w3.org/2000/svg"><path fill-rule="evenodd" clip-rule="evenodd" d="M451.729 158.319c-12.574-19.718-15.001-35.89-15.284-70.016-.408-49.101-65.532-90.138-131.819-87.737-39.381 1.427-53.209 11.089-92.915 21.61-16.029 4.247-32.676 8.58-42.232 10.13-8.956 1.453-19.266.787-30.852.578-22.01-.399-41.206-2.975-67.705 7.618C32.445 55.884.692 100.251 5.025 142.024c1.84 17.731 6.636 30.891 11.105 43.154 6.06 16.626 11.518 31.605 8.193 54.095-2.206 14.919-6.746 26.273-11.3 37.666C5.646 295.386-1.772 313.937.607 347.9c1.609 22.971 48.444 78.406 89.409 81.608 154.061 12.041 107.445 89.454 212.733 66.844 54.75-11.756 43.526-24.092 86.548-106.868 29.719-57.18 89.13-18.301 108.504-105.466 11.383-51.209-20.901-86.224-46.073-125.699zm-.794 10.483c-15.391-22.727-20.486-40.467-28.028-80.772-10.208-54.551-76.236-61.348-104.84-66.405-28.605-5.056-59.826 1.08-101.29 10.145-50.748 11.095-65.607 11.544-82.112 11.576-11.298.022-24.791-.75-43.219 3.92-40.21 10.188-73.42 48.943-73.42 100.148 0 22.202 3.436 33.108 6.665 43.359 4.283 13.595 8.203 26.036 3.261 62.143-1.29 9.43-2.7 18.048-4.01 26.048-7.486 45.732-15.05 60.219 8.316 91.601 23.366 31.382 36.5 54.172 78.741 55.937 47.402 1.98 81.462 16.519 111.388 37.97 22.191 15.906 42.92 23.574 81.277 14.274 66.191-16.049 56.974-60.21 74.468-92.941 33.964-63.544 69.819-28.528 94.395-97.325 16.934-47.405 14.058-67.037-21.592-119.678z" fill="url(#paint0_linear)"/><defs><linearGradient id="paint0_linear" x1="670.475" y1="263.976" x2="401.2" y2="-646.884" gradientUnits="userSpaceOnUse"><animate attributeName="x1" dur="15s" repeatCount="indefinite" values="-10.00; 616.68; 620.31; -19.51; -10.00"/><animate attributeName="y1" dur="15s" repeatCount="indefinite" values="626.68; 630.31; 3.62; -0.13; 626.68"/><animate attributeName="x2" dur="15s" repeatCount="indefinite" values="608.99; -2.31; 1.31; 599.48; 608.99"/><animate attributeName="y2" dur="15s" repeatCount="indefinite" values="7.68; 11.31; 622.62; 618.86; 7.68;"/><stop stop-color="#fff"/><stop offset=".998" stop-color="#fff" stop-opacity="0"/></linearGradient></defs></svg>