<svg viewBox="0 0 501 501" fill="none" xmlns="http://www.w3.org/2000/svg"><path fill-rule="evenodd" clip-rule="evenodd" d="M496.753 190.115c-7.945-42.488-41.833-74.472-81.358-93.379-12.486-5.972-32.82-10.7-45.42-14.686-13.276-4.198-21.173-4.896-37.929-14.709-8.895-5.209-12.173-11.955-21.496-24.81-22.257-30.684-64.335-55.047-114.704-34.986-33.623 13.392-55.54 39.818-73.851 64.767-18.185 24.779-38.597 52.59-80.656 78.14C8.8 170.22-2.888 204.256 1.174 257.8c2.359 31.099 19.402 54.078 39.862 81.662 14.767 19.909 31.313 42.217 45.401 71.708 30.784 64.439 99.692 82.94 136.723 86.621 69.045 6.865 110.913.006 143.408-30.239 30.632-28.512 28.01-34.586 40.633-67.245 10.489-27.14 4.918-37.23 24.699-61.618 14.493-17.867 16.377-19.882 44.595-41.769 15.031-11.658 31.334-47.572 20.258-106.805zM16.747 241.611c5.415-56.29 18.06-71.115 41.416-92.854 36.26-33.751 56.37-57.232 71.128-74.465 23.095-26.968 35.648-36.79 73.924-48.561 49.578-15.247 79.116 7.766 100.749 28.008 5.524 5.168 11.103 10.389 17.232 15.098 25.96 19.944 67.628 26.538 88.665 37.317 27.087 13.879 36.867 31.984 51.647 53.74 17.26 25.408 45.322 98.1-.708 140.72-31.139 28.831-44.11 45.503-63.575 100.019-17.6 35.696-57.584 77.942-129.079 86.9-56.687 7.102-146.215-16.451-174.712-78.364-12.289-26.698-26.572-47.943-39.487-67.152-22.592-33.603-40.994-60.974-37.2-100.406z" fill="url(#paint0_linear)"/><defs><linearGradient id="paint0_linear" x1="160.318" y1="-59.7" x2="363.663" y2="803.156" gradientUnits="userSpaceOnUse"><animate attributeName="x1" dur="15s" repeatCount="indefinite" values="620.31; 616.68; -10.00; -19.51; 620.31"/><animate attributeName="y1" dur="15s" repeatCount="indefinite" values="3.62; 630.31; 626.68; -0.13; 3.62"/><animate attributeName="x2" dur="15s" repeatCount="indefinite" values="1.31; -2.31; 608.99; 599.48; 1.31"/><animate attributeName="y2" dur="15s" repeatCount="indefinite" values="622.62; 11.31; 7.68; 618.86; 622.62;"/><stop stop-color="#fff"/><stop offset="1" stop-color="#fff" stop-opacity="0"/></linearGradient></defs></svg>