<svg width="32" height="32" fill="none" xmlns="http://www.w3.org/2000/svg"><path fill-rule="evenodd" clip-rule="evenodd" d="M16 32c8.837 0 16-7.163 16-16S24.837 0 16 0 0 7.163 0 16s7.163 16 16 16zm9.587-21.704l-.064-.121c-.043-.073-.153-.14-.331-.201-.178-.061-.406-.071-.683-.03l-3.076.024c-.05-.02-.121-.018-.214.006l-.139.036-.053.03-.043.037a.511.511 0 00-.117.128.867.867 0 00-.107.213 21.211 21.211 0 01-1.143 2.738c-.263.502-.505.938-.726 1.307-.22.37-.406.641-.555.816a4.1 4.1 0 01-.406.42c-.121.105-.214.15-.278.133a6.413 6.413 0 01-.181-.048.78.78 0 01-.24-.299 1.48 1.48 0 01-.123-.474 5.88 5.88 0 01-.038-.493c-.003-.138-.001-.332.006-.584.007-.251.01-.422.01-.51 0-.309.006-.644.016-1.005l.027-.857c.007-.211.01-.434.01-.67 0-.235-.012-.42-.037-.553a2.088 2.088 0 00-.112-.39.637.637 0 00-.219-.291 1.15 1.15 0 00-.358-.165c-.377-.097-.857-.15-1.441-.158-1.324-.016-2.175.081-2.553.292-.156.09-.291.211-.405.365-.128.178-.146.276-.054.292.427.073.73.247.908.523l.064.146c.05.106.1.292.15.56.05.268.082.564.096.888.035.592.035 1.1 0 1.521-.036.422-.07.75-.102.986a2.178 2.178 0 01-.272.84.196.196 0 01-.053.06.71.71 0 01-.289.06c-.1 0-.22-.056-.363-.17a2.725 2.725 0 01-.443-.468 6.313 6.313 0 01-.518-.834 15.29 15.29 0 01-.598-1.265l-.171-.353a32.106 32.106 0 01-.438-.991 20.63 20.63 0 01-.491-1.26.8.8 0 00-.256-.389l-.054-.036a1.037 1.037 0 00-.416-.183l-2.926.024c-.3 0-.502.078-.61.232l-.042.073a.44.44 0 00-.032.194c0 .09.021.199.064.329a42.84 42.84 0 001.394 3.31 38.787 38.787 0 001.308 2.566c.37.65.748 1.262 1.132 1.838.385.576.639.945.764 1.107.124.162.222.284.293.365l.267.292c.171.195.422.428.753.7.331.271.698.539 1.1.802.402.264.87.48 1.405.645a4.292 4.292 0 001.559.201h1.228c.249-.024.438-.114.566-.268l.043-.06a.895.895 0 00.08-.225c.025-.102.037-.213.037-.335a4.556 4.556 0 01.07-.943c.053-.28.113-.49.181-.633.068-.142.144-.261.23-.359a.974.974 0 01.181-.176.677.677 0 01.086-.043c.17-.064.372-.002.603.189.231.19.448.426.651.706.203.28.447.594.732.943.285.348.534.608.747.778l.214.146c.142.098.328.187.555.268.228.081.428.101.598.06l2.734-.048c.27 0 .481-.05.63-.152.15-.101.239-.213.267-.335.029-.121.03-.26.006-.413a1.655 1.655 0 00-.075-.323 1.778 1.778 0 00-.07-.152c-.355-.73-1.035-1.626-2.04-2.689-.006-.016-.024-.032-.052-.048a38.14 38.14 0 01-.61-.645 1.742 1.742 0 01-.346-.523 2.986 2.986 0 01-.14-.42c-.024-.11.019-.28.129-.511.11-.231.219-.432.326-.602.107-.17.302-.463.587-.876.292-.43.523-.775.694-1.035 1.232-1.865 1.766-3.058 1.602-3.577z" fill="#0CBBF2"/></svg>