<svg width="32" height="32" viewBox="0 0 32 32" fill="none" xmlns="http://www.w3.org/2000/svg">
<path d="M11.8555 9.02708C11.0744 8.24603 9.80812 8.24603 9.02707 9.02708C8.24602 9.80813 8.24602 11.0745 9.02707 11.8555L11.8555 9.02708ZM20.0858 22.9142C20.8669 23.6953 22.1332 23.6953 22.9142 22.9142C23.6953 22.1332 23.6953 20.8669 22.9142 20.0858L20.0858 22.9142ZM9.02707 11.8555L20.0858 22.9142L22.9142 20.0858L11.8555 9.02708L9.02707 11.8555Z" fill="#8F8F8F"/>
<path d="M9.02707 20.0859C8.24602 20.867 8.24602 22.1333 9.02707 22.9143C9.80812 23.6954 11.0744 23.6954 11.8555 22.9143L9.02707 20.0859ZM22.9142 11.8556C23.6953 11.0745 23.6953 9.80822 22.9142 9.02717C22.1332 8.24612 20.8669 8.24612 20.0858 9.02717L22.9142 11.8556ZM11.8555 22.9143L22.9142 11.8556L20.0858 9.02717L9.02707 20.0859L11.8555 22.9143Z" fill="#8F8F8F"/>
</svg>
