<svg width="32" height="32" viewBox="0 0 32 32" fill="none" xmlns="http://www.w3.org/2000/svg">
<path fill-rule="evenodd" clip-rule="evenodd" d="M16 32C24.8366 32 32 24.8366 32 16C32 7.16344 24.8366 0 16 0C7.16344 0 0 7.16344 0 16C0 24.8366 7.16344 32 16 32ZM21.3333 5.49068C20.5833 5.38578 19.5278 5.33333 18.1667 5.33333C16.5648 5.33333 15.2824 5.78132 14.3194 6.6773C13.3565 7.57328 12.875 8.83421 12.875 10.4601V13.3185H9.33333V17.1996H12.875V27.1515H17.125V17.1996H20.6528L21.1944 13.3185H17.125V10.8403C17.125 10.211 17.2639 9.73893 17.5417 9.42424C17.8194 9.10956 18.3565 8.95221 19.1528 8.95221H21.3333V5.49068Z" fill="#0CBBF2"/>
</svg>
