<svg width="32" height="32" viewBox="0 0 32 32" fill="none" xmlns="http://www.w3.org/2000/svg">
<path fill-rule="evenodd" clip-rule="evenodd" d="M16 32C24.8366 32 32 24.8366 32 16C32 7.16344 24.8366 0 16 0C7.16344 0 0 7.16344 0 16C0 24.8366 7.16344 32 16 32ZM8.14323 10.6536V23.3333H11.5417V10.6536H8.14323ZM8.44792 6.11849C8.11198 6.44661 7.94401 6.86458 7.94401 7.3724C7.94401 7.88802 8.11588 8.3099 8.45963 8.63802C8.8112 8.96615 9.27213 9.13021 9.84245 9.13021C10.4128 9.13021 10.8698 8.96615 11.2135 8.63802C11.5651 8.3099 11.7409 7.88802 11.7409 7.3724C11.7409 6.86458 11.569 6.44661 11.2253 6.11849C10.8815 5.79036 10.4206 5.6263 9.84245 5.6263C9.25651 5.6263 8.79167 5.79036 8.44792 6.11849ZM17.5651 12.1185L17.4596 10.6536H14.2721V23.3333H17.6589V14.3919C18.1354 13.5794 18.8503 13.1732 19.8034 13.1732C20.5299 13.1732 21.0495 13.3372 21.362 13.6654C21.6745 13.9857 21.8307 14.5052 21.8307 15.224V23.3333H25.2174V15.1419C25.2018 13.5716 24.8659 12.3919 24.2096 11.6029C23.5534 10.8138 22.5534 10.4193 21.2096 10.4193C19.6862 10.4193 18.4714 10.9857 17.5651 12.1185Z" fill="#0CBBF2"/>
</svg>
