<svg width="20" height="19" viewBox="0 0 20 19" fill="none" xmlns="http://www.w3.org/2000/svg">
<path d="M10.3857 2.66625L10.386 2.66601L10.3914 2.66097C10.3968 2.65606 10.4055 2.64809 10.4175 2.63734C10.4415 2.61583 10.4786 2.58324 10.5279 2.54178C10.6267 2.45878 10.7737 2.34065 10.9621 2.20489C11.3401 1.93244 11.8775 1.594 12.5182 1.32466C13.7986 0.786381 15.4391 0.540602 17.0787 1.5747C19.6939 3.22407 19.9662 6.27131 18.9621 9.04181C18.7853 9.52956 18.3182 10.2282 17.6194 11.0699C16.9319 11.8979 16.0578 12.8207 15.1162 13.7503C13.3759 15.4683 11.4264 17.1888 10.0492 18.3433C8.83803 17.2854 7.11092 15.7372 5.50851 14.2182C3.74167 12.5432 2.17696 10.9503 1.58732 10.0826C0.137582 7.94916 0.137546 4.71789 1.58731 2.58431C2.59397 1.10284 4.41085 0.500262 5.86887 0.5C6.21107 0.499939 6.61867 0.613442 7.06098 0.814783C7.49806 1.01374 7.93694 1.28358 8.33281 1.5609C8.7273 1.83726 9.07005 2.11467 9.31443 2.32336C9.43634 2.42746 9.53307 2.51386 9.59874 2.57368C9.63156 2.60358 9.65657 2.62679 9.67305 2.64221L9.69125 2.65934L9.69536 2.66324L9.69605 2.66391C9.69608 2.66393 9.6961 2.66395 9.69612 2.66397C9.69613 2.66398 9.69615 2.66399 9.69616 2.66401L9.69618 2.66403L9.69621 2.66405C9.88861 2.8484 10.1918 2.84946 10.3855 2.66649L10.3857 2.66625Z" fill="#0CBBF2" stroke="#0CBBF2" stroke-linejoin="round"/>
</svg>
