<svg width="150" height="150" viewBox="0 0 150 150" fill="none" xmlns="http://www.w3.org/2000/svg">
<path fill-rule="evenodd" clip-rule="evenodd" d="M88.4612 142.674C75.0765 145.337 61.2029 143.97 48.5948 138.748C35.9867 133.525 25.2104 124.681 17.6286 113.334C10.0468 101.987 5.99997 88.6469 5.99997 75C5.99997 70.5817 9.5817 67 14 67C18.4183 67 22 70.5817 22 75C22 85.4824 25.1084 95.7294 30.9321 104.445C36.7558 113.161 45.0333 119.954 54.7178 123.966C64.4022 127.977 75.0588 129.027 85.3398 126.982C95.6207 124.937 105.064 119.889 112.477 112.477C119.889 105.064 124.937 95.6208 126.982 85.3398C129.027 75.0588 127.977 64.4023 123.966 54.7178C119.954 45.0333 113.161 36.7558 104.445 30.9321C95.7294 25.1084 85.4824 22 75 22C70.5817 22 67 18.4183 67 14C67 9.58173 70.5817 6 75 6C88.6469 6 101.987 10.0468 113.334 17.6286C124.681 25.2104 133.525 35.9867 138.748 48.5948C143.97 61.2029 145.337 75.0765 142.674 88.4612C140.012 101.846 133.44 114.141 123.79 123.79C114.141 133.44 101.846 140.012 88.4612 142.674Z" fill="#0381A8"/>
</svg>
