<svg width="1284" height="282" viewBox="0 0 1284 282" fill="none" xmlns="http://www.w3.org/2000/svg">
<path fill-rule="evenodd" clip-rule="evenodd" d="M926.989 50.2892C926.989 46.0689 930.41 42.6478 934.63 42.6478H963.946C968.166 42.6478 971.587 46.0689 971.587 50.2892C971.587 54.5095 968.166 57.9307 963.946 57.9307H942.272V133.007C942.272 137.227 938.85 140.648 934.63 140.648C930.41 140.648 926.989 137.227 926.989 133.007V50.2892Z" fill="#0381A8"/>
<path fill-rule="evenodd" clip-rule="evenodd" d="M950.928 61.4436C943.958 64.8473 942.272 68.9019 942.272 70.2715V132.905C942.272 137.125 938.85 140.546 934.63 140.546C930.41 140.546 926.989 137.125 926.989 132.905V70.2715C926.989 60.3323 935.011 52.2085 944.222 47.7106C953.97 42.9504 967.079 41.0029 981.606 44.2567C985.724 45.1792 988.315 49.2654 987.393 53.3837C986.47 57.5019 982.384 60.0926 978.266 59.1701C966.904 56.6252 957.36 58.3023 950.928 61.4436Z" fill="#0381A8"/>
<path fill-rule="evenodd" clip-rule="evenodd" d="M572.539 50.2892C572.539 46.0689 575.96 42.6478 580.181 42.6478H609.496C613.716 42.6478 617.137 46.0689 617.137 50.2892C617.137 54.5095 613.716 57.9307 609.496 57.9307H587.822V133.007C587.822 137.227 584.401 140.648 580.181 140.648C575.96 140.648 572.539 137.227 572.539 133.007V50.2892Z" fill="#0381A8"/>
<path fill-rule="evenodd" clip-rule="evenodd" d="M596.478 61.4436C589.508 64.8473 587.822 68.9019 587.822 70.2715V132.905C587.822 137.125 584.401 140.546 580.181 140.546C575.96 140.546 572.539 137.125 572.539 132.905V70.2715C572.539 60.3323 580.561 52.2085 589.772 47.7106C599.52 42.9504 612.629 41.0029 627.156 44.2567C631.275 45.1792 633.865 49.2654 632.943 53.3837C632.02 57.5019 627.934 60.0926 623.816 59.1701C612.454 56.6252 602.911 58.3023 596.478 61.4436Z" fill="#0381A8"/>
<path fill-rule="evenodd" clip-rule="evenodd" d="M889.325 42.6478C893.545 42.6478 896.966 46.0689 896.966 50.2892V133.007C896.966 137.227 893.545 140.648 889.325 140.648C885.104 140.648 881.683 137.227 881.683 133.007V50.2892C881.683 46.0689 885.104 42.6478 889.325 42.6478Z" fill="#0381A8"/>
<path fill-rule="evenodd" clip-rule="evenodd" d="M993.615 90.2638C993.615 86.0435 997.036 82.6223 1001.26 82.6223L1083.87 82.6223C1088.09 82.6223 1091.51 86.0435 1091.51 90.2638C1091.51 94.4841 1088.09 97.9053 1083.87 97.9053L1001.26 97.9053C997.036 97.9053 993.615 94.4841 993.615 90.2638Z" fill="#0381A8"/>
<path fill-rule="evenodd" clip-rule="evenodd" d="M1018.74 48.8364C1028.72 43.2772 1040.33 41.3826 1051.56 43.4807C1062.78 45.5787 1072.92 51.5374 1080.22 60.3248C1087.39 68.9531 1091.51 79.2908 1091.51 90.3064C1091.51 94.5266 1088.09 97.9478 1083.87 97.9478C1079.65 97.9478 1076.23 94.5266 1076.23 90.3064C1076.23 83.2497 1073.62 76.2914 1068.46 70.0886C1063.45 64.0448 1056.47 59.9466 1048.75 58.5036C1041.03 57.0605 1033.04 58.3636 1026.18 62.1872C1019.32 66.0107 1014.01 72.1139 1011.17 79.4399C1008.33 86.7659 1008.15 94.8533 1010.64 102.302C1013.14 109.75 1018.17 116.09 1024.85 120.225C1031.33 124.237 1041.48 126.061 1049.5 124.94C1057.28 123.853 1064.44 120.078 1069.73 114.271C1072.57 111.152 1077.4 110.927 1080.52 113.769C1083.64 116.612 1083.87 121.445 1081.03 124.564C1073.33 133.008 1062.93 138.495 1051.62 140.076C1040.55 141.622 1026.71 139.354 1016.8 133.22C1007.09 127.209 999.787 117.991 996.155 107.161C992.523 96.3314 992.793 84.5727 996.917 73.921C1001.04 63.2694 1008.76 54.3957 1018.74 48.8364Z" fill="#0381A8"/>
<path fill-rule="evenodd" clip-rule="evenodd" d="M1133.34 48.8364C1143.32 43.2772 1154.92 41.3826 1166.15 43.4807C1177.38 45.5787 1187.52 51.5374 1194.82 60.3248C1197.51 63.5715 1197.07 68.3891 1193.82 71.0854C1190.57 73.7816 1185.76 73.3353 1183.06 70.0886C1178.04 64.0448 1171.07 59.9466 1163.34 58.5036C1155.62 57.0605 1147.64 58.3636 1140.78 62.1872C1133.91 66.0107 1128.6 72.1139 1125.77 79.4399C1122.93 86.7659 1122.74 94.8533 1125.24 102.302C1127.74 109.75 1132.76 116.09 1139.44 120.225C1145.93 124.237 1156.07 126.061 1164.1 124.94C1171.88 123.853 1179.03 120.079 1184.32 114.271C1187.17 111.152 1192 110.927 1195.12 113.769C1198.24 116.612 1198.46 121.445 1195.62 124.564C1187.93 133.008 1177.53 138.495 1166.21 140.076C1155.15 141.622 1141.31 139.354 1131.4 133.22C1121.69 127.209 1114.38 117.991 1110.75 107.161C1107.12 96.3314 1107.39 84.5727 1111.51 73.921C1115.64 63.2694 1123.36 54.3957 1133.34 48.8364Z" fill="#0381A8"/>
<path fill-rule="evenodd" clip-rule="evenodd" d="M750.743 15.6427L750.743 8.00125H750.744H750.746H750.756H750.796H750.951L751.552 8.00128L753.796 8.00136L761.471 8.00159L775.779 8.00187H775.782H775.796H775.804H775.809H775.823H775.829H775.837H775.851H775.854H775.865H775.879H775.88H775.892H775.906H775.906H775.92H775.933H775.934H775.948H775.959H775.962H775.976H775.986H775.99H776.004H776.014H776.018H776.032H776.042H776.046H776.06H776.07H776.074H776.087H776.098H776.101H776.115H776.127H776.129H776.143H776.156H776.157H776.171H776.185H776.185H776.199H776.213H776.215H776.226H776.24H776.245H776.254H776.268H776.276H776.282H776.295H776.306H776.309H776.323H776.336H776.337H776.35H776.364H776.369H776.377H776.391H776.401H776.404H776.418H776.431H776.433H776.445H776.458H776.465H776.471H776.485H776.498H776.498H776.511H776.524H776.532H776.537H776.55H776.563H776.565H776.576H776.589H776.599H776.602H776.615H776.628H776.633H776.64H776.653H776.666H776.668H776.678H776.69H776.703H776.703H776.715H776.727H776.738H776.74H776.752H776.764H776.774H776.776H776.788H776.799H776.81H776.811H776.823H776.834H776.846H776.847H776.857H776.869H776.88H776.883H776.891H776.902H776.913H776.921H776.924H776.935H776.946H776.956H776.958H776.967H776.977H776.988H776.996H776.998H777.008H777.018H777.028H777.034H777.038H777.048H777.057H777.067H777.073H777.076H777.086H777.095H777.104H777.112H777.113H777.122H777.13H777.139H777.148H777.152H777.156H777.164H777.172H777.18H777.188H777.191H777.196H777.204H777.211H777.219H777.226H777.231H777.233H777.24H777.247H777.253H777.26H777.266H777.272H777.273H777.279H777.285H777.291H777.296H777.302H777.307H777.312H777.313H777.318H777.322H777.327H777.332H777.336H777.341H777.345H777.349H777.353H777.354H777.356H777.36H777.363H777.366H777.369H777.372H777.375H777.377H777.379H777.382H777.383H777.385H777.387H777.388H777.389H777.39H777.391H777.391H777.392H777.392H777.393H777.393H777.396H777.438H777.48H777.523H777.567H777.61H777.654H777.699H777.743H777.789H777.834H777.88H777.927H777.973H778.021H778.068H778.116H778.165H778.213H778.263H778.312H778.362H778.413H778.464H778.515H778.567H778.619H778.671H778.724H778.777H778.831H778.885H778.94H778.995H779.051H779.107H779.163H779.22H779.277H779.335H779.393H779.451H779.51H779.57H779.629H779.69H779.75H779.812H779.873H779.935H779.998H780.061H780.124H780.188H780.252H780.317H780.382H780.448H780.514H780.581H780.648H780.716H780.784H780.852H780.921H780.99H781.06H781.131H781.201H781.273H781.345H781.417H781.49H781.563H781.636H781.711H781.785C795.497 8.00187 811.053 10.8762 824.021 18.1252C824.225 18.2397 824.429 18.3552 824.632 18.4717C837.435 25.8133 847.332 37.3513 852.658 51.1507C858.068 65.1687 858.422 80.6423 853.659 94.8941C848.895 109.146 839.312 121.284 826.562 129.201C813.72 137.176 795.434 140.546 781.785 140.546H750.743C746.522 140.546 743.101 137.124 743.101 132.904V106.254V42.293V15.6427C743.101 13.616 743.906 11.6723 745.339 10.2393C746.772 8.80622 748.716 8.00118 750.743 8.00125L750.743 15.6427ZM758.384 42.293V106.254C758.384 112.512 760.437 117.134 763.475 120.172C766.513 123.21 771.134 125.263 777.393 125.263L781.785 125.263C793.701 125.263 808.878 122.193 818.5 116.218C819.715 115.464 820.891 114.659 822.028 113.807C829.986 107.846 835.982 99.5694 839.164 90.0494C839.618 88.6894 840.012 87.3147 840.345 85.9295C842.673 76.2328 842.014 66.0168 838.4 56.6534C838.142 55.9846 837.87 55.3228 837.584 54.6684C834.616 47.8745 830.169 41.8755 824.61 37.0915C822.137 34.9634 819.444 33.0757 816.563 31.4654C806.452 25.8132 793.639 23.2849 781.785 23.2849L780.252 23.2848H780.188H780.124H780.061H779.998H779.935H779.873H779.812H779.75H779.69H779.629H779.57H779.51H779.451H779.393H779.335H779.277H779.22H779.163H779.107H779.051H778.995H778.94H778.885H778.831H778.777H778.724H778.671H778.619H778.567H778.515H778.464H778.413H778.362H778.312H778.263H778.213H778.165H778.116H778.068H778.021H777.973H777.927H777.88H777.834H777.789H777.743H777.699H777.654H777.61H777.567H777.523H777.48H777.438H777.396H777.393H777.393H777.392H777.392H777.391H777.391H777.39C771.133 23.285 766.512 25.3376 763.475 28.375C760.437 31.4127 758.384 36.0344 758.384 42.293Z" fill="#0381A8"/>
<path fill-rule="evenodd" clip-rule="evenodd" d="M502.894 57.9307C483.334 57.9307 467.895 73.2306 467.895 91.5972C467.895 109.964 483.334 125.264 502.894 125.264C522.454 125.264 537.893 109.964 537.893 91.5972C537.893 73.2306 522.454 57.9307 502.894 57.9307ZM452.612 91.5972C452.612 64.3363 475.355 42.6478 502.894 42.6478C530.434 42.6478 553.176 64.3363 553.176 91.5972C553.176 118.858 530.434 140.547 502.894 140.547C475.355 140.547 452.612 118.858 452.612 91.5972Z" fill="#0381A8"/>
<path fill-rule="evenodd" clip-rule="evenodd" d="M1209.48 50.288C1209.48 46.0677 1212.9 42.6465 1217.12 42.6465L1275.75 42.6465C1279.97 42.6465 1283.4 46.0677 1283.4 50.288C1283.4 54.5083 1279.97 57.9294 1275.75 57.9294L1217.12 57.9294C1212.9 57.9294 1209.48 54.5082 1209.48 50.288Z" fill="#0381A8"/>
<path fill-rule="evenodd" clip-rule="evenodd" d="M1257 119.906C1253.23 116.94 1251.42 113.107 1251.42 108.918V16.975C1251.42 12.7547 1247.99 9.33351 1243.77 9.33351C1239.55 9.33351 1236.13 12.7547 1236.13 16.975V108.918C1236.13 118.055 1240.31 126.215 1247.54 131.91C1254.67 137.53 1264.45 140.545 1275.75 140.545C1279.97 140.545 1283.4 137.124 1283.4 132.904C1283.4 128.683 1279.97 125.262 1275.75 125.262C1267.07 125.262 1260.86 122.948 1257 119.906Z" fill="#0381A8"/>
<path fill-rule="evenodd" clip-rule="evenodd" d="M1243.77 8.00125C1247.99 8.00125 1251.42 11.4224 1251.42 15.6427C1251.42 28.6078 1248.55 39.409 1241.84 47.0157C1234.97 54.8019 1225.25 57.9296 1214.46 57.9296C1210.24 57.9296 1206.82 54.5084 1206.82 50.2882C1206.82 46.0679 1210.24 42.6467 1214.46 42.6467C1222.33 42.6467 1227.26 40.4443 1230.38 36.9042C1233.66 33.1845 1236.13 26.663 1236.13 15.6427C1236.13 11.4224 1239.55 8.00125 1243.77 8.00125Z" fill="#0381A8"/>
<path fill-rule="evenodd" clip-rule="evenodd" d="M657.467 8.00125C661.687 8.00125 665.108 11.4225 665.108 15.6427L665.108 132.904C665.108 137.124 661.687 140.546 657.467 140.546C653.246 140.546 649.825 137.124 649.825 132.904L649.825 15.6427C649.825 11.4224 653.246 8.00125 657.467 8.00125Z" fill="#0381A8"/>
<path fill-rule="evenodd" clip-rule="evenodd" d="M714.32 45.847C716.773 49.2812 715.978 54.0537 712.544 56.5067L674.014 84.0277L726.28 127.002C729.54 129.682 730.01 134.498 727.33 137.758C724.649 141.018 719.834 141.487 716.574 138.807L656.611 89.5039C654.775 87.9946 653.746 85.7172 653.827 83.3421C653.908 80.967 655.089 78.7647 657.022 77.3834L703.661 44.0704C707.095 41.6175 711.867 42.4129 714.32 45.847Z" fill="#0381A8"/>
<path fill-rule="evenodd" clip-rule="evenodd" d="M657.467 31.9878C661.687 31.9878 665.108 35.409 665.108 39.6293C665.108 46.6058 665.375 52.1995 666.283 56.331C667.225 60.6117 668.445 61.4727 668.779 61.6438C669.197 61.8582 671.395 62.6268 677.644 60.0933C683.688 57.6433 692.073 52.6775 703.546 44.1553C706.933 41.6387 711.72 42.3449 714.236 45.7327C716.753 49.1204 716.047 53.9069 712.659 56.4236C700.812 65.2241 691.209 71.085 683.386 74.2566C675.769 77.3446 668.222 78.5297 661.812 75.2462C655.317 71.9194 652.622 65.3683 651.357 59.6135C650.058 53.7095 649.825 46.6442 649.825 39.6293C649.825 35.409 653.246 31.9878 657.467 31.9878Z" fill="#0381A8"/>
<path fill-rule="evenodd" clip-rule="evenodd" d="M333.221 135.713L318.053 97.6567C317.799 97.0789 317.546 96.4914 317.295 95.8943C317.155 95.563 317.041 95.2274 316.951 94.8896L286.495 18.4725C284.933 14.5522 286.844 10.1075 290.765 8.54502C294.685 6.98258 299.13 8.89407 300.692 12.8144L332.145 91.7342C334.376 96.7616 336.444 100.234 338.235 102.452C340.723 105.533 341.653 104.161 341.653 104.161C342.993 102.748 344.722 100.01 346.558 95.4211C346.687 95.0982 346.836 94.789 347.002 94.4942L365.174 47.5502L365.206 47.469C365.605 46.4634 366.194 45.5889 366.916 44.871C367.613 44.1768 368.456 43.607 369.421 43.2135C369.633 43.1269 369.849 43.0497 370.069 42.9823C370.811 42.7542 371.564 42.6451 372.308 42.6452C373.051 42.6451 373.805 42.7542 374.547 42.9824C374.766 43.0497 374.982 43.1269 375.195 43.2135C376.16 43.6069 377.002 44.1766 377.699 44.8707C378.421 45.5887 379.011 46.4632 379.41 47.469L379.441 47.5496L397.613 94.4934C397.78 94.7884 397.929 95.0979 398.058 95.4211C399.893 100.01 401.623 102.748 402.962 104.161C402.962 104.161 403.903 105.519 406.38 102.452C408.172 100.234 410.239 96.7632 412.469 91.7375L443.923 12.8144C445.486 8.89407 449.931 6.98258 453.851 8.54502C457.771 10.1075 459.683 14.5522 458.12 18.4725L427.665 94.8884C427.575 95.2266 427.461 95.5626 427.321 95.8943C427.069 96.4927 426.816 97.0815 426.561 97.6606L411.396 135.711L411.341 135.846C410.94 136.808 410.365 137.645 409.666 138.336C408.818 139.175 407.788 139.798 406.67 140.166C405.87 140.429 405.054 140.552 404.25 140.548C403.447 140.544 402.632 140.413 401.834 140.142C401.67 140.086 401.507 140.024 401.347 139.958C400.385 139.557 399.548 138.981 398.857 138.283C398.107 137.525 397.53 136.622 397.153 135.64L372.308 71.4565L347.462 135.641L347.417 135.755C347.026 136.729 346.456 137.58 345.759 138.283C345.068 138.981 344.23 139.557 343.269 139.958C343.108 140.024 342.946 140.086 342.781 140.142C341.984 140.413 341.169 140.544 340.365 140.548C339.36 140.553 338.372 140.358 337.456 139.986C336.491 139.595 335.647 139.028 334.95 138.336C334.241 137.635 333.658 136.783 333.257 135.803L333.221 135.713ZM340.559 105.047C340.559 105.047 340.589 105.027 340.648 105.014C340.587 105.045 340.559 105.047 340.559 105.047ZM404.057 105.047C404.057 105.047 404.026 105.027 403.968 105.014C404.028 105.045 404.057 105.047 404.057 105.047Z" fill="#0381A8"/>
<path d="M5.96411 74.1305L120.773 11.5074L234.091 72.6394L235.582 205.341L120.773 272.437L5.96411 208.323V74.1305Z" fill="#CFCFCF"/>
<path d="M158.031 257.234L125.228 275.87C123.24 276.999 120.773 275.564 120.773 273.277V236.556C120.773 235.483 121.349 234.493 122.282 233.963L155.084 215.327C157.072 214.198 159.54 215.633 159.54 217.92V254.641C159.54 255.714 158.963 256.704 158.031 257.234Z" fill="#FFB258"/>
<path d="M158.08 211.512L125.278 230.995C123.29 232.175 120.773 230.743 120.773 228.431V189.806C120.773 188.754 121.327 187.78 122.232 187.242L155.035 167.759C157.023 166.578 159.54 168.011 159.54 170.323V208.948C159.54 210 158.985 210.974 158.08 211.512Z" fill="#FFB258"/>
<path d="M158.031 164.79L125.228 183.426C123.24 184.556 120.773 183.12 120.773 180.834V144.112C120.773 143.04 121.349 142.05 122.282 141.52L155.084 122.883C157.072 121.754 159.54 123.19 159.54 125.476V162.197C159.54 163.27 158.963 164.26 158.031 164.79Z" fill="#FFB258"/>
<path d="M199.698 233.359L163.913 252.237C161.927 253.285 159.54 251.845 159.54 249.6V212.762C159.54 211.656 160.152 210.641 161.13 210.125L196.915 191.247C198.901 190.199 201.288 191.639 201.288 193.884V230.721C201.288 231.828 200.676 232.843 199.698 233.359Z" fill="#FFB258"/>
<path d="M199.746 187.639L163.962 207.375C161.974 208.471 159.54 207.033 159.54 204.764V166.013C159.54 164.927 160.13 163.927 161.081 163.402L196.866 143.666C198.853 142.57 201.288 144.007 201.288 146.277V185.027C201.288 186.114 200.698 187.114 199.746 187.639Z" fill="#FFB258"/>
<path d="M199.698 140.915L163.913 159.794C161.927 160.841 159.54 159.401 159.54 157.156V120.319C159.54 119.213 160.152 118.197 161.13 117.681L196.915 98.8029C198.901 97.7553 201.288 99.1952 201.288 101.44V138.278C201.288 139.384 200.676 140.399 199.698 140.915Z" fill="#FFB258"/>
<path d="M238.546 209.521L205.743 228.157C203.755 229.287 201.288 227.851 201.288 225.564V188.843C201.288 187.77 201.865 186.78 202.797 186.25L235.6 167.614C237.588 166.485 240.055 167.921 240.055 170.207V206.928C240.055 208.001 239.479 208.991 238.546 209.521Z" fill="#FFB258"/>
<path d="M238.596 163.799L205.793 183.282C203.805 184.463 201.288 183.03 201.288 180.718V142.093C201.288 141.041 201.843 140.067 202.748 139.53L235.55 120.046C237.538 118.866 240.055 120.298 240.055 122.61V161.235C240.055 162.287 239.5 163.261 238.596 163.799Z" fill="#FFB258"/>
<path d="M238.546 117.077L205.743 135.714C203.755 136.843 201.288 135.407 201.288 133.121V96.3996C201.288 95.3269 201.865 94.3368 202.797 93.8068L235.6 75.1707C237.588 74.0412 240.055 75.4771 240.055 77.7635V114.485C240.055 115.557 239.479 116.547 238.546 117.077Z" fill="#FFB258"/>
<path d="M83.5153 257.234L116.318 275.87C118.306 276.999 120.773 275.564 120.773 273.277V236.556C120.773 235.483 120.197 234.493 119.264 233.963L86.4614 215.327C84.4734 214.198 82.0063 215.633 82.0063 217.92V254.641C82.0063 255.714 82.5825 256.704 83.5153 257.234Z" fill="#0381A8"/>
<path d="M83.4655 211.512L116.268 230.995C118.256 232.175 120.773 230.743 120.773 228.431V189.806C120.773 188.754 120.218 187.78 119.314 187.242L86.5112 167.759C84.5234 166.578 82.0063 168.011 82.0063 170.323V208.948C82.0063 210 82.5608 210.974 83.4655 211.512Z" fill="#0381A8"/>
<path d="M83.5153 164.79L116.318 183.426C118.306 184.556 120.773 183.12 120.773 180.834V144.112C120.773 143.04 120.197 142.05 119.264 141.52L86.4614 122.883C84.4734 121.754 82.0063 123.19 82.0063 125.476V162.197C82.0063 163.27 82.5825 164.26 83.5153 164.79Z" fill="#0381A8"/>
<path d="M41.8483 233.359L77.6329 252.237C79.6188 253.285 82.0063 251.845 82.0063 249.6V212.762C82.0063 211.656 81.3941 210.641 80.4157 210.125L44.6311 191.247C42.6452 190.199 40.2576 191.639 40.2576 193.884V230.721C40.2576 231.828 40.8699 232.843 41.8483 233.359Z" fill="#0381A8"/>
<path d="M41.7995 187.639L77.5841 207.375C79.5716 208.471 82.0063 207.033 82.0063 204.764V166.013C82.0063 164.927 81.4157 163.927 80.4645 163.402L44.6799 143.666C42.6924 142.57 40.2576 144.007 40.2576 146.277V185.027C40.2576 186.114 40.8483 187.114 41.7995 187.639Z" fill="#0381A8"/>
<path d="M41.8483 140.915L77.6329 159.794C79.6188 160.841 82.0063 159.401 82.0063 157.156V120.319C82.0063 119.213 81.3941 118.197 80.4157 117.681L44.6311 98.8029C42.6452 97.7553 40.2576 99.1952 40.2576 101.44V138.278C40.2576 139.384 40.8699 140.399 41.8483 140.915Z" fill="#0381A8"/>
<path d="M2.9999 209.521L35.8025 228.157C37.7904 229.287 40.2576 227.851 40.2576 225.564V188.843C40.2576 187.77 39.6813 186.78 38.7486 186.25L5.94603 167.614C3.95807 166.485 1.49092 167.921 1.49092 170.207V206.928C1.49092 208.001 2.06715 208.991 2.9999 209.521Z" fill="#0381A8"/>
<path d="M2.95012 163.799L35.7527 183.282C37.7405 184.463 40.2576 183.03 40.2576 180.718V142.093C40.2576 141.041 39.703 140.067 38.7984 139.53L5.99581 120.046C4.008 118.866 1.49092 120.298 1.49092 122.61V161.235C1.49092 162.287 2.04544 163.261 2.95012 163.799Z" fill="#0381A8"/>
<path d="M2.9999 117.077L35.8025 135.714C37.7904 136.843 40.2576 135.407 40.2576 133.121V96.3996C40.2576 95.3269 39.6813 94.3368 38.7486 93.8068L5.94603 75.1707C3.95807 74.0412 1.49092 75.4771 1.49092 77.7635V114.485C1.49092 115.557 2.06715 116.547 2.9999 117.077Z" fill="#0381A8"/>
<path d="M119.313 140.407L85.1958 121.249C83.1559 120.104 83.1693 117.162 85.2196 116.035L119.337 97.2853C120.231 96.7937 121.315 96.7937 122.209 97.2853L156.327 116.035C158.377 117.162 158.39 120.104 156.35 121.249L122.233 140.407C121.326 140.916 120.22 140.916 119.313 140.407Z" fill="white"/>
<path fill-rule="evenodd" clip-rule="evenodd" d="M118.619 95.9786C119.96 95.2413 121.586 95.2413 122.928 95.9786L157.045 114.729C160.12 116.419 160.14 120.831 157.08 122.549L122.963 141.707C121.603 142.471 119.943 142.471 118.583 141.707L84.4658 122.549C81.4059 120.831 81.426 116.419 84.5015 114.729L118.619 95.9786ZM121.491 98.592C121.044 98.3462 120.502 98.3462 120.055 98.592L85.9378 117.342C84.9126 117.906 84.9059 119.376 85.9259 119.949L120.043 139.107C120.496 139.361 121.05 139.361 121.503 139.107L155.62 119.949C156.64 119.376 156.634 117.906 155.608 117.342L121.491 98.592Z" fill="#CFCFCF"/>
<path d="M80.5464 118.041L46.4292 98.8837C44.3893 97.7382 44.4027 94.7969 46.453 93.6701L80.5702 74.9199C81.4646 74.4284 82.5483 74.4284 83.4427 74.9199L117.56 93.6701C119.61 94.7969 119.624 97.7382 117.584 98.8837L83.4665 118.041C82.5598 118.551 81.4532 118.551 80.5464 118.041Z" fill="white"/>
<path fill-rule="evenodd" clip-rule="evenodd" d="M79.8519 73.6132C81.1935 72.8759 82.8191 72.8759 84.1607 73.6132L118.278 92.3634C121.353 94.0537 121.373 98.4655 118.314 100.184L84.1964 119.342C82.8362 120.105 81.1764 120.105 79.8162 119.342L45.699 100.184C42.6391 98.4655 42.6592 94.0537 45.7347 92.3634L79.8519 73.6132ZM82.7244 76.2266C82.2772 75.9808 81.7354 75.9808 81.2882 76.2266L47.171 94.9768C46.1458 95.5402 46.1391 97.0108 47.1591 97.5836L81.2763 116.741C81.7297 116.996 82.2829 116.996 82.7363 116.741L116.854 97.5836C117.873 97.0108 117.867 95.5402 116.842 94.9768L82.7244 76.2266Z" fill="#CFCFCF"/>
<path d="M119.313 92.694L85.1958 73.5362C83.1559 72.3907 83.1693 69.4495 85.2196 68.3227L119.337 49.5725C120.231 49.0809 121.315 49.0809 122.209 49.5725L156.327 68.3227C158.377 69.4495 158.39 72.3907 156.35 73.5362L122.233 92.694C121.326 93.2032 120.22 93.2032 119.313 92.694Z" fill="white"/>
<path fill-rule="evenodd" clip-rule="evenodd" d="M118.619 48.2658C119.96 47.5285 121.586 47.5285 122.928 48.2658L157.045 67.016C160.12 68.7062 160.14 73.1181 157.08 74.8363L122.963 93.9941C121.603 94.7579 119.943 94.7579 118.583 93.9941L84.4658 74.8363C81.4059 73.1181 81.426 68.7062 84.5015 67.016L118.619 48.2658ZM121.491 50.8792C121.044 50.6334 120.502 50.6334 120.055 50.8792L85.9378 69.6294C84.9126 70.1928 84.9059 71.6634 85.9259 72.2361L120.043 91.3939C120.496 91.6485 121.05 91.6485 121.503 91.3939L155.62 72.2362C156.64 71.6634 156.634 70.1928 155.608 69.6294L121.491 50.8792Z" fill="#CFCFCF"/>
<path d="M79.0552 68.8376L44.938 49.6798C42.8981 48.5343 42.9115 45.5931 44.9618 44.4663L79.079 25.7161C79.9734 25.2245 81.0571 25.2245 81.9515 25.7161L116.069 44.4663C118.119 45.5931 118.132 48.5343 116.093 49.6798L81.9753 68.8376C81.0686 69.3468 79.962 69.3468 79.0552 68.8376Z" fill="white"/>
<path fill-rule="evenodd" clip-rule="evenodd" d="M78.3609 24.4094C79.7026 23.6721 81.3281 23.6721 82.6697 24.4094L116.787 43.1596C119.862 44.8498 119.883 49.2617 116.823 50.9799L82.7054 70.1377C81.3452 70.9015 79.6854 70.9015 78.3252 70.1377L44.208 50.9799C41.1481 49.2617 41.1682 44.8498 44.2437 43.1596L78.3609 24.4094ZM81.2335 27.0228C80.7862 26.777 80.2444 26.777 79.7972 27.0228L45.68 45.773C44.6548 46.3364 44.6481 47.807 45.6681 48.3797L79.7853 67.5375C80.2387 67.7921 80.792 67.7921 81.2454 67.5375L115.363 48.3798C116.383 47.807 116.376 46.3364 115.351 45.773L81.2335 27.0228Z" fill="#CFCFCF"/>
<path d="M159.571 68.8376L125.453 49.6798C123.413 48.5343 123.427 45.5931 125.477 44.4663L159.594 25.7161C160.489 25.2245 161.572 25.2245 162.467 25.7161L196.584 44.4663C198.634 45.5931 198.648 48.5343 196.608 49.6798L162.491 68.8376C161.584 69.3468 160.477 69.3468 159.571 68.8376Z" fill="white"/>
<path fill-rule="evenodd" clip-rule="evenodd" d="M158.876 24.4094C160.218 23.6721 161.843 23.6721 163.185 24.4094L197.302 43.1596C200.378 44.8498 200.398 49.2617 197.338 50.9799L163.221 70.1377C161.861 70.9015 160.201 70.9015 158.841 70.1377L124.723 50.9799C121.663 49.2617 121.684 44.8498 124.759 43.1596L158.876 24.4094ZM161.749 27.0228C161.302 26.777 160.76 26.777 160.313 27.0228L126.195 45.773C125.17 46.3364 125.163 47.807 126.183 48.3797L160.301 67.5375C160.754 67.7921 161.307 67.7921 161.761 67.5375L195.878 48.3798C196.898 47.807 196.891 46.3364 195.866 45.773L161.749 27.0228Z" fill="#CFCFCF"/>
<path d="M119.313 44.9812L85.1958 25.8234C83.1559 24.6779 83.1693 21.7367 85.2196 20.6099L119.337 1.8597C120.231 1.36814 121.315 1.36814 122.209 1.8597L156.327 20.6099C158.377 21.7367 158.39 24.6779 156.35 25.8234L122.233 44.9812C121.326 45.4904 120.22 45.4904 119.313 44.9812Z" fill="white"/>
<path fill-rule="evenodd" clip-rule="evenodd" d="M118.619 0.553005C119.96 -0.184333 121.586 -0.184336 122.928 0.553003L157.045 19.3032C160.12 20.9934 160.14 25.4053 157.08 27.1235L122.963 46.2813C121.603 47.0451 119.943 47.0451 118.583 46.2813L84.4658 27.1235C81.4059 25.4053 81.426 20.9934 84.5015 19.3032L118.619 0.553005ZM121.491 3.16638C121.044 2.92061 120.502 2.92061 120.055 3.16638L85.9378 21.9166C84.9126 22.48 84.9059 23.9506 85.9259 24.5233L120.043 43.6811C120.496 43.9357 121.05 43.9357 121.503 43.6811L155.62 24.5234C156.64 23.9506 156.634 22.48 155.608 21.9166L121.491 3.16638Z" fill="#CFCFCF"/>
<path d="M40.2886 94.1851L6.1714 75.0273C4.13145 73.8818 4.14487 70.9405 6.1952 69.8137L40.3124 51.0635C41.2068 50.572 42.2905 50.572 43.1849 51.0635L77.3021 69.8137C79.3525 70.9405 79.3659 73.8818 77.3259 75.0273L43.2087 94.1851C42.3019 94.6942 41.1954 94.6942 40.2886 94.1851Z" fill="white"/>
<path fill-rule="evenodd" clip-rule="evenodd" d="M39.5943 49.7568C40.936 49.0195 42.5615 49.0195 43.9031 49.7568L78.0203 68.507C81.0958 70.1973 81.1159 74.6091 78.056 76.3273L43.9388 95.4851C42.5786 96.2489 40.9188 96.2489 39.5586 95.4851L5.44143 76.3273C2.3815 74.6091 2.40163 70.1973 5.47712 68.507L39.5943 49.7568ZM42.4669 52.3702C42.0196 52.1244 41.4778 52.1244 41.0306 52.3702L6.91339 71.1204C5.88823 71.6838 5.88151 73.1544 6.90149 73.7272L41.0187 92.885C41.4721 93.1396 42.0254 93.1396 42.4788 92.885L76.5959 73.7272C77.6159 73.1544 77.6092 71.6838 76.5841 71.1204L42.4669 52.3702Z" fill="#CFCFCF"/>
<path d="M159.571 116.55L125.453 97.3926C123.413 96.2471 123.427 93.3059 125.477 92.1791L159.594 73.4289C160.489 72.9373 161.572 72.9373 162.467 73.4289L196.584 92.1791C198.634 93.3059 198.648 96.2471 196.608 97.3926L162.491 116.55C161.584 117.06 160.477 117.06 159.571 116.55Z" fill="white"/>
<path fill-rule="evenodd" clip-rule="evenodd" d="M158.876 72.1222C160.218 71.3849 161.843 71.3849 163.185 72.1222L197.302 90.8724C200.378 92.5626 200.398 96.9745 197.338 98.6927L163.221 117.851C161.861 118.614 160.201 118.614 158.841 117.851L124.723 98.6927C121.663 96.9745 121.684 92.5626 124.759 90.8724L158.876 72.1222ZM161.749 74.7356C161.302 74.4898 160.76 74.4898 160.313 74.7356L126.195 93.4858C125.17 94.0492 125.163 95.5198 126.183 96.0926L160.301 115.25C160.754 115.505 161.307 115.505 161.761 115.25L195.878 96.0926C196.898 95.5198 196.891 94.0492 195.866 93.4858L161.749 74.7356Z" fill="#CFCFCF"/>
<path d="M198.337 92.694L164.22 73.5362C162.18 72.3907 162.194 69.4495 164.244 68.3227L198.361 49.5725C199.256 49.0809 200.339 49.0809 201.234 49.5725L235.351 68.3227C237.401 69.4495 237.415 72.3907 235.375 73.5362L201.258 92.694C200.351 93.2032 199.244 93.2032 198.337 92.694Z" fill="white"/>
<path fill-rule="evenodd" clip-rule="evenodd" d="M197.643 48.2658C198.985 47.5285 200.61 47.5285 201.952 48.2658L236.069 67.016C239.144 68.7062 239.165 73.1181 236.105 74.8363L201.987 93.9941C200.627 94.7579 198.967 94.7579 197.607 93.9941L163.49 74.8363C160.43 73.1181 160.45 68.7062 163.526 67.016L197.643 48.2658ZM200.515 50.8792C200.068 50.6334 199.526 50.6334 199.079 50.8792L164.962 69.6294C163.937 70.1928 163.93 71.6634 164.95 72.2361L199.067 91.3939C199.521 91.6485 200.074 91.6485 200.527 91.3939L234.645 72.2362C235.665 71.6634 235.658 70.1928 234.633 69.6294L200.515 50.8792Z" fill="#CFCFCF"/>
<path fill-rule="evenodd" clip-rule="evenodd" d="M17.2988 100.999C20.5764 100.671 23.499 103.062 23.8268 106.34L32.0682 188.754L50.9915 147.303C54.3952 139.848 65.1994 140.513 67.6623 148.33L91.4075 223.695L99.9447 155.398C100.353 152.129 103.334 149.811 106.603 150.219C109.871 150.628 112.189 153.609 111.781 156.877L101.548 238.739C100.357 248.271 87.0252 249.48 84.1384 240.317L58.6184 159.319L38.337 203.745C34.5445 212.053 22.2058 210.007 21.2971 200.92L11.9578 107.527C11.63 104.249 14.0213 101.327 17.2988 100.999Z" fill="white"/>
<path fill-rule="evenodd" clip-rule="evenodd" d="M210.769 129.889C216.678 136.515 220.085 146.978 220.666 160.351C221.437 178.089 219.156 190.906 214.933 200.345C210.651 209.918 204.543 215.632 198.441 219.372C198.383 219.408 198.324 219.442 198.265 219.476L153.534 244.824C151.688 245.87 149.424 245.856 147.591 244.788C145.757 243.719 144.629 241.757 144.629 239.635V149.221C144.629 146.986 145.879 144.938 147.867 143.916L186.634 123.994C186.893 123.861 187.162 123.747 187.438 123.653C195.97 120.748 204.541 122.906 210.769 129.889ZM191.661 134.822C195.5 133.641 198.923 134.528 201.867 137.829C205.225 141.594 208.23 148.92 208.749 160.87C209.469 177.425 207.277 188.248 204.045 195.474C200.892 202.522 196.598 206.494 192.291 209.151L156.558 229.4V152.861L191.661 134.822Z" fill="white"/>
<path fill-rule="evenodd" clip-rule="evenodd" d="M154.348 214.031C157.33 212.336 161.031 214.49 161.031 217.92V254.641C161.031 256.25 160.166 257.735 158.767 258.53L125.965 277.166C122.983 278.86 119.282 276.707 119.282 273.277V236.556C119.282 234.947 120.146 233.462 121.545 232.667L154.348 214.031ZM158.049 217.92C158.049 216.777 156.815 216.059 155.821 216.623L123.019 235.26C122.552 235.525 122.264 236.02 122.264 236.556V273.277C122.264 274.42 123.498 275.138 124.492 274.573L157.294 255.937C157.761 255.672 158.049 255.177 158.049 254.641V217.92Z" fill="#CFCFCF"/>
<path fill-rule="evenodd" clip-rule="evenodd" d="M154.273 166.477C157.255 164.706 161.031 166.855 161.031 170.323V208.948C161.031 210.526 160.199 211.988 158.842 212.794L126.039 232.277C123.058 234.048 119.282 231.899 119.282 228.431V189.806C119.282 188.228 120.114 186.766 121.471 185.96L154.273 166.477ZM158.049 170.323C158.049 169.167 156.79 168.451 155.796 169.041L122.994 188.524C122.541 188.793 122.264 189.28 122.264 189.806V228.431C122.264 229.587 123.523 230.303 124.516 229.713L157.319 210.23C157.771 209.961 158.049 209.474 158.049 208.948V170.323Z" fill="#CFCFCF"/>
<path fill-rule="evenodd" clip-rule="evenodd" d="M154.348 121.587C157.33 119.893 161.031 122.047 161.031 125.476V162.197C161.031 163.807 160.166 165.292 158.767 166.087L125.965 184.723C122.983 186.417 119.282 184.263 119.282 180.834V144.112C119.282 142.503 120.146 141.018 121.545 140.223L154.348 121.587ZM158.049 125.476C158.049 124.333 156.815 123.615 155.821 124.18L123.019 142.816C122.552 143.081 122.264 143.576 122.264 144.112V180.834C122.264 181.977 123.498 182.695 124.492 182.13L157.294 163.494C157.761 163.229 158.049 162.734 158.049 162.197V125.476Z" fill="#CFCFCF"/>
<path fill-rule="evenodd" clip-rule="evenodd" d="M196.219 189.928C199.198 188.357 202.779 190.517 202.779 193.885V230.722C202.779 232.381 201.861 233.904 200.393 234.678L164.609 253.556C161.63 255.128 158.049 252.968 158.049 249.6V212.763C158.049 211.104 158.967 209.581 160.435 208.806L196.219 189.928ZM199.797 193.885C199.797 192.762 198.603 192.042 197.611 192.566L161.826 211.444C161.337 211.702 161.031 212.21 161.031 212.763V249.6C161.031 250.723 162.224 251.443 163.217 250.919L199.002 232.041C199.491 231.783 199.797 231.275 199.797 230.722V193.885Z" fill="#CFCFCF"/>
<path fill-rule="evenodd" clip-rule="evenodd" d="M196.146 142.36C199.127 140.716 202.779 142.872 202.779 146.277V185.027C202.779 186.657 201.893 188.157 200.467 188.944L164.682 208.68C161.701 210.325 158.049 208.168 158.049 204.764V166.013C158.049 164.384 158.935 162.883 160.361 162.096L196.146 142.36ZM199.797 146.277C199.797 145.142 198.58 144.423 197.586 144.971L161.802 164.708C161.326 164.97 161.031 165.47 161.031 166.013V204.764C161.031 205.898 162.248 206.617 163.242 206.069L199.026 186.333C199.502 186.071 199.797 185.57 199.797 185.027V146.277Z" fill="#CFCFCF"/>
<path fill-rule="evenodd" clip-rule="evenodd" d="M196.219 97.4847C199.198 95.9132 202.779 98.0731 202.779 101.441V138.278C202.779 139.938 201.861 141.46 200.393 142.235L164.609 161.113C161.63 162.684 158.049 160.525 158.049 157.157V120.319C158.049 118.66 158.967 117.137 160.435 116.363L196.219 97.4847ZM199.797 101.441C199.797 100.318 198.603 99.5984 197.611 100.122L161.826 119C161.337 119.259 161.031 119.766 161.031 120.319V157.157C161.031 158.279 162.224 158.999 163.217 158.475L199.002 139.597C199.491 139.339 199.797 138.831 199.797 138.278V101.441Z" fill="#CFCFCF"/>
<path fill-rule="evenodd" clip-rule="evenodd" d="M234.863 166.318C237.845 164.624 241.546 166.777 241.546 170.207V206.928C241.546 208.537 240.682 210.022 239.283 210.817L206.48 229.453C203.498 231.148 199.797 228.994 199.797 225.564V188.843C199.797 187.234 200.662 185.749 202.061 184.954L234.863 166.318ZM238.564 170.207C238.564 169.064 237.33 168.346 236.336 168.911L203.534 187.547C203.068 187.812 202.779 188.307 202.779 188.843V225.564C202.779 226.707 204.013 227.425 205.007 226.861L237.81 208.225C238.276 207.96 238.564 207.464 238.564 206.928V170.207Z" fill="#CFCFCF"/>
<path fill-rule="evenodd" clip-rule="evenodd" d="M234.789 118.764C237.77 116.993 241.546 119.142 241.546 122.61V161.235C241.546 162.813 240.714 164.275 239.357 165.081L206.555 184.564C203.573 186.335 199.797 184.186 199.797 180.718V142.093C199.797 140.515 200.629 139.054 201.986 138.248L234.789 118.764ZM238.564 122.61C238.564 121.454 237.305 120.738 236.312 121.328L203.509 140.812C203.057 141.08 202.779 141.567 202.779 142.093V180.718C202.779 181.874 204.038 182.59 205.032 182L237.834 162.517C238.287 162.248 238.564 161.761 238.564 161.235V122.61Z" fill="#CFCFCF"/>
<path fill-rule="evenodd" clip-rule="evenodd" d="M234.863 73.8742C237.845 72.1801 241.546 74.3338 241.546 77.7634V114.485C241.546 116.094 240.682 117.579 239.283 118.374L206.48 137.01C203.498 138.704 199.797 136.55 199.797 133.121V96.3996C199.797 94.7904 200.662 93.3053 202.061 92.5104L234.863 73.8742ZM238.564 77.7634C238.564 76.6202 237.33 75.9023 236.336 76.467L203.534 95.1032C203.068 95.3682 202.779 95.8632 202.779 96.3996V133.121C202.779 134.264 204.013 134.982 205.007 134.417L237.81 115.781C238.276 115.516 238.564 115.021 238.564 114.485V77.7634Z" fill="#CFCFCF"/>
<path fill-rule="evenodd" clip-rule="evenodd" d="M87.1981 214.031C84.2162 212.336 80.5155 214.49 80.5155 217.92V254.641C80.5155 256.25 81.3798 257.735 82.7789 258.53L115.581 277.166C118.563 278.86 122.264 276.707 122.264 273.277V236.556C122.264 234.947 121.4 233.462 120.001 232.667L87.1981 214.031ZM83.4975 217.92C83.4975 216.777 84.7311 216.059 85.7251 216.623L118.528 235.26C118.994 235.525 119.282 236.02 119.282 236.556V273.277C119.282 274.42 118.049 275.138 117.055 274.573L84.252 255.937C83.7856 255.672 83.4975 255.177 83.4975 254.641V217.92Z" fill="#CFCFCF"/>
<path fill-rule="evenodd" clip-rule="evenodd" d="M87.2728 166.477C84.2911 164.706 80.5155 166.855 80.5155 170.323V208.948C80.5155 210.526 81.3473 211.988 82.7043 212.794L115.507 232.277C118.489 234.048 122.264 231.899 122.264 228.431V189.806C122.264 188.228 121.432 186.766 120.075 185.96L87.2728 166.477ZM83.4975 170.323C83.4975 169.167 84.7561 168.451 85.75 169.041L118.553 188.524C119.005 188.793 119.282 189.28 119.282 189.806V228.431C119.282 229.587 118.024 230.303 117.03 229.713L84.2271 210.23C83.7748 209.961 83.4975 209.474 83.4975 208.948V170.323Z" fill="#CFCFCF"/>
<path fill-rule="evenodd" clip-rule="evenodd" d="M87.1981 121.587C84.2162 119.893 80.5155 122.047 80.5155 125.476V162.197C80.5155 163.807 81.3798 165.292 82.7789 166.087L115.581 184.723C118.563 186.417 122.264 184.263 122.264 180.834V144.112C122.264 142.503 121.4 141.018 120.001 140.223L87.1981 121.587ZM83.4975 125.476C83.4975 124.333 84.7311 123.615 85.7251 124.18L118.528 142.816C118.994 143.081 119.282 143.576 119.282 144.112V180.834C119.282 181.977 118.049 182.695 117.055 182.13L84.252 163.494C83.7856 163.229 83.4975 162.734 83.4975 162.197V125.476Z" fill="#CFCFCF"/>
<path fill-rule="evenodd" clip-rule="evenodd" d="M45.3268 189.928C42.3479 188.357 38.7666 190.517 38.7666 193.885V230.722C38.7666 232.381 39.685 233.904 41.1525 234.678L76.9371 253.556C79.9159 255.128 83.4973 252.968 83.4973 249.6V212.763C83.4973 211.104 82.5789 209.581 81.1114 208.806L45.3268 189.928ZM41.7486 193.885C41.7486 192.762 42.9424 192.042 43.9353 192.566L79.72 211.444C80.2091 211.702 80.5153 212.21 80.5153 212.763V249.6C80.5153 250.723 79.3215 251.443 78.3285 250.919L42.5439 232.041C42.0547 231.783 41.7486 231.275 41.7486 230.722V193.885Z" fill="#CFCFCF"/>
<path fill-rule="evenodd" clip-rule="evenodd" d="M45.3999 142.36C42.4187 140.716 38.7666 142.872 38.7666 146.277V185.027C38.7666 186.657 39.6526 188.157 41.0794 188.944L76.864 208.68C79.8452 210.325 83.4973 208.168 83.4973 204.764V166.013C83.4973 164.384 82.6113 162.883 81.1845 162.096L45.3999 142.36ZM41.7486 146.277C41.7486 145.142 42.966 144.423 43.9597 144.971L79.7443 164.708C80.2199 164.97 80.5153 165.47 80.5153 166.013V204.764C80.5153 205.898 79.2979 206.617 78.3042 206.069L42.5196 186.333C42.044 186.071 41.7486 185.57 41.7486 185.027V146.277Z" fill="#CFCFCF"/>
<path fill-rule="evenodd" clip-rule="evenodd" d="M45.3268 97.4847C42.3479 95.9132 38.7666 98.0731 38.7666 101.441V138.278C38.7666 139.938 39.685 141.46 41.1525 142.235L76.9371 161.113C79.9159 162.684 83.4973 160.525 83.4973 157.157V120.319C83.4973 118.66 82.5789 117.137 81.1114 116.363L45.3268 97.4847ZM41.7486 101.441C41.7486 100.318 42.9424 99.5984 43.9353 100.122L79.72 119C80.2091 119.259 80.5153 119.766 80.5153 120.319V157.157C80.5153 158.279 79.3215 158.999 78.3285 158.475L42.5439 139.597C42.0547 139.339 41.7486 138.831 41.7486 138.278V101.441Z" fill="#CFCFCF"/>
<path fill-rule="evenodd" clip-rule="evenodd" d="M6.68275 166.318C3.70081 164.624 8.01086e-05 166.777 8.01086e-05 170.207V206.928C8.01086e-05 208.537 0.864426 210.022 2.26356 210.817L35.0661 229.453C38.0481 231.148 41.7488 228.994 41.7488 225.564V188.843C41.7488 187.234 40.8844 185.749 39.4853 184.954L6.68275 166.318ZM2.98213 170.207C2.98213 169.064 4.21571 168.346 5.20969 168.911L38.0122 187.547C38.4786 187.812 38.7667 188.307 38.7667 188.843V225.564C38.7667 226.707 37.5332 227.425 36.5392 226.861L3.73662 208.225C3.27024 207.96 2.98213 207.464 2.98213 206.928V170.207Z" fill="#CFCFCF"/>
<path fill-rule="evenodd" clip-rule="evenodd" d="M6.75742 118.764C3.77571 116.993 8.01086e-05 119.142 8.01086e-05 122.61V161.235C8.01086e-05 162.813 0.831879 164.275 2.18889 165.081L34.9914 184.564C37.9731 186.335 41.7488 184.186 41.7488 180.718V142.093C41.7488 140.515 40.917 139.054 39.56 138.248L6.75742 118.764ZM2.98213 122.61C2.98213 121.454 4.24068 120.738 5.23458 121.328L38.0371 140.812C38.4895 141.08 38.7667 141.567 38.7667 142.093V180.718C38.7667 181.874 37.5082 182.59 36.5143 182L3.71173 162.517C3.2594 162.248 2.98213 161.761 2.98213 161.235V122.61Z" fill="#CFCFCF"/>
<path fill-rule="evenodd" clip-rule="evenodd" d="M6.68275 73.8742C3.70081 72.1801 8.01086e-05 74.3338 8.01086e-05 77.7634V114.485C8.01086e-05 116.094 0.864426 117.579 2.26356 118.374L35.0661 137.01C38.0481 138.704 41.7488 136.55 41.7488 133.121V96.3996C41.7488 94.7904 40.8844 93.3053 39.4853 92.5104L6.68275 73.8742ZM2.98213 77.7634C2.98213 76.6202 4.21571 75.9023 5.20969 76.467L38.0122 95.1032C38.4786 95.3682 38.7667 95.8632 38.7667 96.3996V133.121C38.7667 134.264 37.5332 134.982 36.5392 134.417L3.73662 115.781C3.27024 115.516 2.98213 115.021 2.98213 114.485V77.7634Z" fill="#CFCFCF"/>
<path d="M331.008 240.156H307.18L301.828 255H294.094L315.812 198.125H322.375L344.133 255H336.438L331.008 240.156ZM309.445 233.984H328.781L319.094 207.383L309.445 233.984Z" fill="#D98E36"/>
<path d="M377.961 218.711H358.469V255H351.203V212.734H377.961V218.711Z" fill="#D98E36"/>
<path d="M419.953 234.336C419.953 240.768 418.482 245.951 415.539 249.883C412.596 253.815 408.612 255.781 403.586 255.781C398.456 255.781 394.419 254.154 391.477 250.898V271.25H384.25V212.734H390.852L391.203 217.422C394.146 213.776 398.234 211.953 403.469 211.953C408.547 211.953 412.557 213.867 415.5 217.695C418.469 221.523 419.953 226.849 419.953 233.672V234.336ZM412.727 233.516C412.727 228.75 411.711 224.987 409.68 222.227C407.648 219.466 404.862 218.086 401.32 218.086C396.945 218.086 393.664 220.026 391.477 223.906V244.102C393.638 247.956 396.945 249.883 401.398 249.883C404.862 249.883 407.609 248.516 409.641 245.781C411.698 243.021 412.727 238.932 412.727 233.516Z" fill="#D98E36"/>
<path d="M446.711 255.781C440.982 255.781 436.32 253.906 432.727 250.156C429.133 246.38 427.336 241.341 427.336 235.039V233.711C427.336 229.518 428.13 225.781 429.719 222.5C431.333 219.193 433.573 216.615 436.438 214.766C439.328 212.891 442.453 211.953 445.812 211.953C451.307 211.953 455.578 213.763 458.625 217.383C461.672 221.003 463.195 226.185 463.195 232.93V235.938H434.562C434.667 240.104 435.878 243.477 438.195 246.055C440.539 248.607 443.508 249.883 447.102 249.883C449.654 249.883 451.815 249.362 453.586 248.32C455.357 247.279 456.906 245.898 458.234 244.18L462.648 247.617C459.107 253.06 453.794 255.781 446.711 255.781ZM445.812 217.891C442.896 217.891 440.448 218.958 438.469 221.094C436.49 223.203 435.266 226.172 434.797 230H455.969V229.453C455.76 225.781 454.771 222.943 453 220.938C451.229 218.906 448.833 217.891 445.812 217.891Z" fill="#D98E36"/>
<path d="M498.898 218.711H479.406V255H472.141V212.734H498.898V218.711Z" fill="#D98E36"/>
<path d="M531.281 255C530.865 254.167 530.526 252.682 530.266 250.547C526.906 254.036 522.896 255.781 518.234 255.781C514.068 255.781 510.643 254.609 507.961 252.266C505.305 249.896 503.977 246.901 503.977 243.281C503.977 238.88 505.643 235.469 508.977 233.047C512.336 230.599 517.049 229.375 523.117 229.375H530.148V226.055C530.148 223.529 529.393 221.523 527.883 220.039C526.372 218.529 524.146 217.773 521.203 217.773C518.625 217.773 516.464 218.424 514.719 219.727C512.974 221.029 512.102 222.604 512.102 224.453H504.836C504.836 222.344 505.578 220.312 507.062 218.359C508.573 216.38 510.604 214.818 513.156 213.672C515.734 212.526 518.56 211.953 521.633 211.953C526.503 211.953 530.318 213.177 533.078 215.625C535.839 218.047 537.271 221.393 537.375 225.664V245.117C537.375 248.997 537.87 252.083 538.859 254.375V255H531.281ZM519.289 249.492C521.555 249.492 523.703 248.906 525.734 247.734C527.766 246.562 529.237 245.039 530.148 243.164V234.492H524.484C515.63 234.492 511.203 237.083 511.203 242.266C511.203 244.531 511.958 246.302 513.469 247.578C514.979 248.854 516.919 249.492 519.289 249.492Z" fill="#D98E36"/>
<path d="M579.484 218.594H565.305V255H558.078V218.594H544.172V212.734H579.484V218.594Z" fill="#D98E36"/>
<path d="M582.961 233.477C582.961 229.336 583.768 225.612 585.383 222.305C587.023 218.997 589.289 216.445 592.18 214.648C595.096 212.852 598.417 211.953 602.141 211.953C607.896 211.953 612.544 213.945 616.086 217.93C619.654 221.914 621.438 227.214 621.438 233.828V234.336C621.438 238.451 620.643 242.148 619.055 245.43C617.492 248.685 615.24 251.224 612.297 253.047C609.38 254.87 606.021 255.781 602.219 255.781C596.49 255.781 591.841 253.789 588.273 249.805C584.732 245.82 582.961 240.547 582.961 233.984V233.477ZM590.227 234.336C590.227 239.023 591.307 242.786 593.469 245.625C595.656 248.464 598.573 249.883 602.219 249.883C605.891 249.883 608.807 248.451 610.969 245.586C613.13 242.695 614.211 238.659 614.211 233.477C614.211 228.841 613.104 225.091 610.891 222.227C608.703 219.336 605.786 217.891 602.141 217.891C598.573 217.891 595.695 219.31 593.508 222.148C591.32 224.987 590.227 229.049 590.227 234.336Z" fill="#D98E36"/>
<path d="M666.203 234.336C666.203 240.768 664.732 245.951 661.789 249.883C658.846 253.815 654.862 255.781 649.836 255.781C644.706 255.781 640.669 254.154 637.727 250.898V271.25H630.5V212.734H637.102L637.453 217.422C640.396 213.776 644.484 211.953 649.719 211.953C654.797 211.953 658.807 213.867 661.75 217.695C664.719 221.523 666.203 226.849 666.203 233.672V234.336ZM658.977 233.516C658.977 228.75 657.961 224.987 655.93 222.227C653.898 219.466 651.112 218.086 647.57 218.086C643.195 218.086 639.914 220.026 637.727 223.906V244.102C639.888 247.956 643.195 249.883 647.648 249.883C651.112 249.883 653.859 248.516 655.891 245.781C657.948 243.021 658.977 238.932 658.977 233.516Z" fill="#D98E36"/>
<path d="M713.82 215.156C719.133 215.156 723.378 216.94 726.555 220.508C729.758 224.049 731.359 228.724 731.359 234.531V235.195C731.359 239.18 730.591 242.747 729.055 245.898C727.518 249.023 725.305 251.458 722.414 253.203C719.549 254.922 716.242 255.781 712.492 255.781C706.815 255.781 702.245 253.893 698.781 250.117C695.318 246.315 693.586 241.224 693.586 234.844V231.328C693.586 222.448 695.227 215.391 698.508 210.156C701.815 204.922 706.685 201.732 713.117 200.586C716.763 199.935 719.224 199.141 720.5 198.203C721.776 197.266 722.414 195.977 722.414 194.336H728.352C728.352 197.591 727.609 200.13 726.125 201.953C724.667 203.776 722.323 205.065 719.094 205.82L713.703 207.031C709.406 208.047 706.177 209.766 704.016 212.188C701.88 214.583 700.487 217.786 699.836 221.797C703.664 217.37 708.326 215.156 713.82 215.156ZM712.414 221.094C708.872 221.094 706.06 222.292 703.977 224.688C701.893 227.057 700.852 230.352 700.852 234.57V235.195C700.852 239.727 701.893 243.32 703.977 245.977C706.086 248.607 708.924 249.922 712.492 249.922C716.086 249.922 718.924 248.594 721.008 245.938C723.091 243.281 724.133 239.401 724.133 234.297C724.133 230.312 723.078 227.122 720.969 224.727C718.885 222.305 716.034 221.094 712.414 221.094Z" fill="#D98E36"/>
<path d="M766.125 212.734H773.352V255H766.125V224.18L746.633 255H739.406V212.734H746.633V243.594L766.125 212.734Z" fill="#D98E36"/>
<path d="M820.656 234.336C820.656 240.768 819.185 245.951 816.242 249.883C813.299 253.815 809.315 255.781 804.289 255.781C799.159 255.781 795.122 254.154 792.18 250.898V271.25H784.953V212.734H791.555L791.906 217.422C794.849 213.776 798.938 211.953 804.172 211.953C809.25 211.953 813.26 213.867 816.203 217.695C819.172 221.523 820.656 226.849 820.656 233.672V234.336ZM813.43 233.516C813.43 228.75 812.414 224.987 810.383 222.227C808.352 219.466 805.565 218.086 802.023 218.086C797.648 218.086 794.367 220.026 792.18 223.906V244.102C794.341 247.956 797.648 249.883 802.102 249.883C805.565 249.883 808.312 248.516 810.344 245.781C812.401 243.021 813.43 238.932 813.43 233.516Z" fill="#D98E36"/>
<path d="M862.961 236.641H857.883V255H850.656V236.641H845.578L833.742 255H824.602L839.719 233.125L826.047 212.734H834.797L845.695 230.234H850.656V212.734H857.883V230.234H862.805L873.781 212.734H882.531L868.82 233.164L883.938 255H874.797L862.961 236.641Z" fill="#D98E36"/>
<path d="M908.781 234.648C908.781 227.591 910.148 222.044 912.883 218.008C915.617 213.971 919.367 211.953 924.133 211.953C926.346 211.953 928.286 212.331 929.953 213.086V195H937.18V213.32C939.003 212.409 941.138 211.953 943.586 211.953C948.378 211.953 952.141 213.971 954.875 218.008C957.609 222.044 958.977 227.865 958.977 235.469C958.977 241.693 957.609 246.641 954.875 250.312C952.167 253.984 948.43 255.82 943.664 255.82C941.138 255.82 938.977 255.404 937.18 254.57V271.25H929.953V254.688C928.234 255.443 926.268 255.82 924.055 255.82C919.315 255.82 915.578 253.984 912.844 250.312C910.135 246.641 908.781 241.615 908.781 235.234V234.648ZM951.75 234.648C951.75 229.336 950.839 225.221 949.016 222.305C947.193 219.362 944.68 217.891 941.477 217.891C939.836 217.891 938.404 218.151 937.18 218.672V249.258C938.352 249.701 939.81 249.922 941.555 249.922C944.784 249.922 947.284 248.672 949.055 246.172C950.852 243.672 951.75 239.831 951.75 234.648ZM916.008 235.469C916.008 240.208 916.854 243.802 918.547 246.25C920.24 248.698 922.674 249.922 925.852 249.922C927.362 249.922 928.729 249.688 929.953 249.219V218.555C928.859 218.112 927.518 217.891 925.93 217.891C922.753 217.891 920.305 219.31 918.586 222.148C916.867 224.987 916.008 229.427 916.008 235.469Z" fill="#D98E36"/>
<path d="M1004.09 234.336C1004.09 240.768 1002.62 245.951 999.68 249.883C996.737 253.815 992.753 255.781 987.727 255.781C982.596 255.781 978.56 254.154 975.617 250.898V271.25H968.391V212.734H974.992L975.344 217.422C978.286 213.776 982.375 211.953 987.609 211.953C992.688 211.953 996.698 213.867 999.641 217.695C1002.61 221.523 1004.09 226.849 1004.09 233.672V234.336ZM996.867 233.516C996.867 228.75 995.852 224.987 993.82 222.227C991.789 219.466 989.003 218.086 985.461 218.086C981.086 218.086 977.805 220.026 975.617 223.906V244.102C977.779 247.956 981.086 249.883 985.539 249.883C989.003 249.883 991.75 248.516 993.781 245.781C995.839 243.021 996.867 238.932 996.867 233.516Z" fill="#D98E36"/>
<path d="M1040.66 212.734H1047.88V255H1040.66V224.18L1021.16 255H1013.94V212.734H1021.16V243.594L1040.66 212.734Z" fill="#D98E36"/>
<path d="M1094.13 212.734V255H1086.87V218.711H1072.49L1071.63 234.531C1071.16 241.797 1069.94 246.992 1067.96 250.117C1066.01 253.242 1062.9 254.87 1058.62 255H1055.73V248.633L1057.8 248.477C1060.15 248.216 1061.83 246.862 1062.84 244.414C1063.86 241.966 1064.51 237.435 1064.8 230.82L1065.58 212.734H1094.13Z" fill="#D98E36"/>
<path d="M1131.83 255C1131.41 254.167 1131.07 252.682 1130.81 250.547C1127.45 254.036 1123.44 255.781 1118.78 255.781C1114.61 255.781 1111.19 254.609 1108.51 252.266C1105.85 249.896 1104.52 246.901 1104.52 243.281C1104.52 238.88 1106.19 235.469 1109.52 233.047C1112.88 230.599 1117.6 229.375 1123.66 229.375H1130.7V226.055C1130.7 223.529 1129.94 221.523 1128.43 220.039C1126.92 218.529 1124.69 217.773 1121.75 217.773C1119.17 217.773 1117.01 218.424 1115.27 219.727C1113.52 221.029 1112.65 222.604 1112.65 224.453H1105.38C1105.38 222.344 1106.12 220.312 1107.61 218.359C1109.12 216.38 1111.15 214.818 1113.7 213.672C1116.28 212.526 1119.11 211.953 1122.18 211.953C1127.05 211.953 1130.86 213.177 1133.62 215.625C1136.39 218.047 1137.82 221.393 1137.92 225.664V245.117C1137.92 248.997 1138.42 252.083 1139.41 254.375V255H1131.83ZM1119.84 249.492C1122.1 249.492 1124.25 248.906 1126.28 247.734C1128.31 246.562 1129.78 245.039 1130.7 243.164V234.492H1125.03C1116.18 234.492 1111.75 237.083 1111.75 242.266C1111.75 244.531 1112.51 246.302 1114.02 247.578C1115.53 248.854 1117.47 249.492 1119.84 249.492Z" fill="#D98E36"/>
<path d="M1183.78 255H1176.55V236.953H1157.14V255H1149.88V212.734H1157.14V231.055H1176.55V212.734H1183.78V255Z" fill="#D98E36"/>
<path d="M1212.38 249.883C1214.95 249.883 1217.21 249.102 1219.13 247.539C1221.06 245.977 1222.13 244.023 1222.34 241.68H1229.17C1229.04 244.102 1228.21 246.406 1226.67 248.594C1225.14 250.781 1223.08 252.526 1220.5 253.828C1217.95 255.13 1215.24 255.781 1212.38 255.781C1206.62 255.781 1202.04 253.867 1198.62 250.039C1195.24 246.185 1193.55 240.924 1193.55 234.258V233.047C1193.55 228.932 1194.3 225.273 1195.81 222.07C1197.32 218.867 1199.48 216.38 1202.3 214.609C1205.14 212.839 1208.48 211.953 1212.34 211.953C1217.08 211.953 1221.01 213.372 1224.13 216.211C1227.28 219.049 1228.96 222.734 1229.17 227.266H1222.34C1222.13 224.531 1221.09 222.292 1219.21 220.547C1217.36 218.776 1215.07 217.891 1212.34 217.891C1208.66 217.891 1205.81 219.219 1203.78 221.875C1201.78 224.505 1200.77 228.32 1200.77 233.32V234.688C1200.77 239.557 1201.78 243.307 1203.78 245.938C1205.79 248.568 1208.65 249.883 1212.38 249.883Z" fill="#D98E36"/>
<path d="M1263.39 255C1262.97 254.167 1262.64 252.682 1262.38 250.547C1259.02 254.036 1255.01 255.781 1250.34 255.781C1246.18 255.781 1242.75 254.609 1240.07 252.266C1237.41 249.896 1236.09 246.901 1236.09 243.281C1236.09 238.88 1237.75 235.469 1241.09 233.047C1244.45 230.599 1249.16 229.375 1255.23 229.375H1262.26V226.055C1262.26 223.529 1261.5 221.523 1259.99 220.039C1258.48 218.529 1256.26 217.773 1253.31 217.773C1250.73 217.773 1248.57 218.424 1246.83 219.727C1245.08 221.029 1244.21 222.604 1244.21 224.453H1236.95C1236.95 222.344 1237.69 220.312 1239.17 218.359C1240.68 216.38 1242.71 214.818 1245.27 213.672C1247.84 212.526 1250.67 211.953 1253.74 211.953C1258.61 211.953 1262.43 213.177 1265.19 215.625C1267.95 218.047 1269.38 221.393 1269.48 225.664V245.117C1269.48 248.997 1269.98 252.083 1270.97 254.375V255H1263.39ZM1251.4 249.492C1253.66 249.492 1255.81 248.906 1257.84 247.734C1259.88 246.562 1261.35 245.039 1262.26 243.164V234.492H1256.59C1247.74 234.492 1243.31 237.083 1243.31 242.266C1243.31 244.531 1244.07 246.302 1245.58 247.578C1247.09 248.854 1249.03 249.492 1251.4 249.492Z" fill="#D98E36"/>
</svg>
