<svg width="32" height="32" viewBox="0 0 32 32" fill="none" xmlns="http://www.w3.org/2000/svg">
<path fill-rule="evenodd" clip-rule="evenodd" d="M16 32C24.8366 32 32 24.8366 32 16C32 7.16344 24.8366 0 16 0C7.16344 0 0 7.16344 0 16C0 24.8366 7.16344 32 16 32ZM25.5871 10.2963L25.5231 10.1746C25.4803 10.1016 25.37 10.0347 25.192 9.97384C25.014 9.913 24.7862 9.90286 24.5085 9.94342L21.4329 9.96775C21.383 9.94748 21.3118 9.9495 21.2193 9.97384L21.0804 10.0103L21.027 10.0408L20.9843 10.0773C20.9487 10.1016 20.9096 10.1442 20.8668 10.205C20.8241 10.2658 20.7885 10.3368 20.7601 10.4179C20.4254 11.3994 20.0445 12.3119 19.6174 13.1555C19.3539 13.6584 19.1119 14.0944 18.8912 14.4635C18.6705 14.8325 18.4853 15.1043 18.3358 15.2786C18.1863 15.453 18.0511 15.593 17.93 15.6984C17.809 15.8039 17.7164 15.8485 17.6524 15.8322C17.5883 15.816 17.5278 15.7998 17.4708 15.7836C17.3711 15.7106 17.291 15.6112 17.2305 15.4855C17.17 15.3598 17.1291 15.2016 17.1077 15.011C17.0863 14.8204 17.0739 14.6561 17.0703 14.5182C17.0668 14.3803 17.0686 14.1856 17.0757 13.9342C17.0828 13.6827 17.0863 13.5124 17.0863 13.4232C17.0863 13.115 17.0917 12.7804 17.1024 12.4194C17.113 12.0584 17.1219 11.7725 17.1291 11.5616C17.1362 11.3507 17.1397 11.1277 17.1397 10.8924C17.1397 10.6572 17.1273 10.4727 17.1024 10.3388C17.0775 10.205 17.0401 10.0752 16.9902 9.9495C16.9404 9.82378 16.8674 9.72644 16.7713 9.6575C16.6752 9.58855 16.5559 9.5338 16.4135 9.49324C16.0362 9.39591 15.5556 9.34318 14.9718 9.33507C13.6476 9.31885 12.7968 9.41618 12.4195 9.62708C12.2628 9.7163 12.1276 9.83797 12.0136 9.99209C11.8855 10.1705 11.8677 10.2679 11.9603 10.2841C12.3874 10.3571 12.69 10.5315 12.868 10.8073L12.9321 10.9533C12.9819 11.0587 13.0317 11.2453 13.0816 11.513C13.1314 11.7806 13.1635 12.0767 13.1777 12.4012C13.2133 12.9933 13.2133 13.5002 13.1777 13.922C13.1421 14.3438 13.1083 14.6723 13.0762 14.9076C13.0442 15.1428 12.9962 15.3334 12.9321 15.4794C12.868 15.6254 12.8253 15.7146 12.8039 15.7471C12.7826 15.7795 12.7648 15.7998 12.7505 15.8079C12.658 15.8485 12.5619 15.8687 12.4622 15.8687C12.3625 15.8687 12.2415 15.812 12.0991 15.6984C11.9567 15.5848 11.809 15.4287 11.6559 15.23C11.5028 15.0313 11.3302 14.7534 11.1379 14.3965C10.9457 14.0396 10.7464 13.6179 10.5399 13.1312L10.369 12.7783C10.2622 12.5512 10.1163 12.2207 9.93117 11.7867C9.74606 11.3528 9.58231 10.933 9.43992 10.5274C9.38296 10.3571 9.29753 10.2273 9.18361 10.1381L9.13022 10.1016C9.09462 10.0691 9.03766 10.0347 8.95935 9.99817C8.88103 9.96167 8.79916 9.93531 8.71372 9.91909L5.78757 9.94342C5.48855 9.94342 5.28564 10.0205 5.17885 10.1746L5.13613 10.2476C5.11477 10.2882 5.10409 10.353 5.10409 10.4423C5.10409 10.5315 5.12545 10.641 5.16817 10.7708C5.59535 11.9145 6.0599 13.0176 6.56183 14.0802C7.06376 15.1428 7.49983 15.9985 7.87005 16.6474C8.24027 17.2963 8.61761 17.9087 9.00207 18.4846C9.38652 19.0606 9.64105 19.4296 9.76564 19.5918C9.89023 19.7541 9.98813 19.8757 10.0593 19.9569L10.3263 20.2489C10.4972 20.4435 10.7481 20.6767 11.0792 20.9485C11.4103 21.2202 11.7769 21.4879 12.1792 21.7515C12.5814 22.0151 13.0495 22.2301 13.5835 22.3963C14.1175 22.5626 14.6372 22.6295 15.1427 22.5971H16.3708C16.62 22.5728 16.8087 22.4835 16.9368 22.3294L16.9796 22.2686C17.008 22.2199 17.0347 22.1449 17.0597 22.0435C17.0846 21.9421 17.097 21.8306 17.097 21.7089C17.0899 21.3601 17.113 21.0458 17.1664 20.766C17.2198 20.4861 17.2804 20.2752 17.348 20.1333C17.4156 19.9913 17.4922 19.8717 17.5776 19.7744C17.663 19.677 17.7236 19.6182 17.7591 19.5979C17.7947 19.5777 17.8232 19.5635 17.8446 19.5553C18.0155 19.4905 18.2166 19.5533 18.448 19.7439C18.6794 19.9345 18.8965 20.1698 19.0994 20.4496C19.3023 20.7295 19.5462 21.0438 19.8309 21.3926C20.1157 21.7413 20.3649 22.0009 20.5785 22.1712L20.7921 22.3173C20.9345 22.4146 21.1196 22.5038 21.3474 22.5849C21.5752 22.666 21.7746 22.6863 21.9455 22.6458L24.6794 22.5971C24.9499 22.5971 25.16 22.5464 25.3095 22.445C25.459 22.3436 25.548 22.2321 25.5765 22.1104C25.6049 21.9887 25.6067 21.8509 25.5818 21.6967C25.5569 21.5426 25.532 21.4351 25.507 21.3743C25.4821 21.3135 25.459 21.2628 25.4376 21.2222C25.0816 20.4922 24.4017 19.5959 23.3979 18.5333C23.3907 18.5171 23.3729 18.5009 23.3445 18.4846C23.1024 18.2332 22.8995 18.0182 22.7357 17.8398C22.572 17.6614 22.4563 17.487 22.3887 17.3166C22.321 17.1463 22.2747 17.0064 22.2498 16.8969C22.2249 16.7874 22.2676 16.617 22.378 16.3858C22.4883 16.1547 22.5969 15.9539 22.7037 15.7836C22.8105 15.6132 23.0063 15.3212 23.2911 14.9076C23.583 14.4777 23.8144 14.1329 23.9852 13.8734C25.2169 12.0078 25.7509 10.8154 25.5871 10.2963Z" fill="#0CBBF2"/>
</svg>
